<svg width="64" height="64" viewBox="0 0 64 64" fill="none" xmlns="http://www.w3.org/2000/svg">
<path d="M55.6897 39.2242V43.1094H46.076V33.4895H55.6897V39.2242ZM43.1156 52.0217V55.6897H33.5019V46.0698H43.1156V52.0217ZM20.9216 55.6897V46.0698H30.5415V55.6897H20.9216ZM8.34135 43.1094V33.4895H17.9612V43.1094H8.34135ZM8.34135 20.9154H17.9612V30.5291H8.34135V20.9154ZM20.9216 13.3189V8.34135H30.5415V17.955H20.9216V13.3126V13.3189ZM43.1156 8.34135V17.955H33.5019V8.34135H43.1156ZM33.5019 30.5291V20.9154H43.1156V30.5291H33.5019ZM20.9216 27.4321V20.9154H30.5415V30.5291H20.9216V27.4321ZM20.9216 38.6718V33.4895H30.5415V43.1094H20.9216V38.6718ZM43.1156 38.6718V43.1094H33.5019V33.4895H43.1156V38.6718ZM55.6897 20.9154V30.5291H46.076V20.9154H55.6897ZM62.5539 30.5291H58.6501V20.9154H59.3825C60.2017 20.9154 60.8596 20.2514 60.8596 19.4383C60.8596 18.6253 60.1955 17.9612 59.3825 17.9612H58.6501V16.5462C58.6501 15.7269 57.986 15.069 57.173 15.069C56.36 15.069 55.6959 15.7331 55.6959 16.5462V17.9612H46.0822V8.34756H47.4973C48.3165 8.34756 48.9744 7.68348 48.9744 6.87044C48.9744 6.05741 48.3103 5.39333 47.4973 5.39333H46.0822V4.66098C46.0822 3.84174 45.4182 3.18386 44.6051 3.18386C43.7921 3.18386 43.128 3.84794 43.128 4.66098V5.39333H33.5144V1.47711C33.5144 0.657874 32.8503 0 32.0372 0C31.2242 0 30.5601 0.664081 30.5601 1.47711V5.38092H20.9403V4.64856C20.9403 3.82932 20.2762 3.17145 19.4632 3.17145C18.6501 3.17145 17.986 3.83553 17.986 4.64856V5.38092H16.5648C15.7455 5.38092 15.0877 6.045 15.0877 6.85803C15.0877 7.67106 15.7517 8.33514 16.5648 8.33514H17.986V17.9488H8.36618V16.5337C8.36618 15.7145 7.7021 15.0566 6.88906 15.0566C6.07603 15.0566 5.41195 15.7207 5.41195 16.5337V17.9488H4.6796C3.86036 17.9488 3.20248 18.6129 3.20248 19.4259C3.20248 20.2389 3.86656 20.903 4.6796 20.903H5.41195V30.5167H1.47711C0.657874 30.5167 0 31.1808 0 31.9938C0 32.8068 0.664081 33.4709 1.47711 33.4709H5.38092V43.0908H4.64856C3.82932 43.0908 3.17145 43.7548 3.17145 44.5679C3.17145 45.3809 3.83553 46.045 4.64856 46.045H5.38092V47.4663C5.38092 48.2855 6.045 48.9434 6.85803 48.9434C7.67106 48.9434 8.33514 48.2793 8.33514 47.4663V46.045H17.955V55.6649H16.5337C15.7145 55.6649 15.0566 56.3289 15.0566 57.142C15.0566 57.955 15.7207 58.6191 16.5337 58.6191H17.955V59.3514C17.955 60.1707 18.6191 60.8286 19.4321 60.8286C20.2452 60.8286 20.9092 60.1645 20.9092 59.3514V58.6191H30.5291V62.5229C30.5291 63.3421 31.1932 64 32.0062 64C32.8192 64 33.4833 63.3359 33.4833 62.5229V58.6191H43.097V59.3514C43.097 60.1707 43.7611 60.8286 44.5741 60.8286C45.3871 60.8286 46.0512 60.1645 46.0512 59.3514V58.6191H47.4663C48.2855 58.6191 48.9434 57.955 48.9434 57.142C48.9434 56.3289 48.2793 55.6649 47.4663 55.6649H46.0512V46.045H55.6649V47.4663C55.6649 48.2855 56.3289 48.9434 57.142 48.9434C57.955 48.9434 58.6191 48.2793 58.6191 47.4663V46.045H59.3514C60.1707 46.045 60.8286 45.3809 60.8286 44.5679C60.8286 43.7548 60.1645 43.0908 59.3514 43.0908H58.6191V33.4709H62.5229C63.3421 33.4709 64 32.8068 64 31.9938C64 31.1808 63.3359 30.5167 62.5229 30.5167" fill="#F7B502"/>
</svg>
