<svg width="136" height="35" viewBox="0 0 136 35" fill="none" xmlns="http://www.w3.org/2000/svg">
<path d="M34.0355 16.6134H31.9106V11.3818H32.3097C32.7541 11.3818 33.1145 11.0214 33.1145 10.577C33.1145 10.1326 32.7541 9.77223 32.3097 9.77223H31.9106V9.00105C31.9106 8.55668 31.5502 8.19628 31.1058 8.19628C30.6614 8.19628 30.301 8.55668 30.301 9.00105V9.77223H25.0694V4.54057H25.8406C26.2849 4.54057 26.6453 4.18017 26.6453 3.7358C26.6453 3.29143 26.2849 2.93102 25.8406 2.93102H25.0694V2.53187C25.0694 2.0875 24.709 1.7271 24.2646 1.7271C23.8202 1.7271 23.4598 2.0875 23.4598 2.53187V2.93102H18.2282V0.804772C18.2282 0.360404 17.8678 0 17.4234 0C16.979 0 16.6186 0.360404 16.6186 0.804772V2.92973H11.3844V2.53058C11.3844 2.08621 11.024 1.7258 10.5796 1.7258C10.1352 1.7258 9.77482 2.08621 9.77482 2.53058V2.92973H9.00105C8.55668 2.92973 8.19628 3.29014 8.19628 3.7345C8.19628 4.17887 8.55668 4.53928 9.00105 4.53928H9.77482V9.77094H4.54057V8.99976C4.54057 8.55539 4.18017 8.19498 3.7358 8.19498C3.29143 8.19498 2.93102 8.55539 2.93102 8.99976V9.77094H2.53187C2.0875 9.77094 1.7271 10.1313 1.7271 10.5757C1.7271 11.0201 2.0875 11.3805 2.53187 11.3805H2.93102V16.6122H0.804772C0.360404 16.6122 0 16.9726 0 17.4169C0 17.8613 0.360404 18.2217 0.804772 18.2217H2.92973V23.4559H2.53058C2.08621 23.4559 1.7258 23.8164 1.7258 24.2607C1.7258 24.7051 2.08621 25.0655 2.53058 25.0655H2.92973V25.8393C2.92973 26.2836 3.29014 26.644 3.7345 26.644C4.17887 26.644 4.53928 26.2836 4.53928 25.8393V25.0655H9.77353V30.2997H8.99976C8.55539 30.2997 8.19498 30.6601 8.19498 31.1045C8.19498 31.5489 8.55539 31.9093 8.99976 31.9093H9.77353V32.3084C9.77353 32.7528 10.1339 33.1132 10.5783 33.1132C11.0227 33.1132 11.3831 32.7528 11.3831 32.3084V31.9093H16.6173V34.0342C16.6173 34.4786 16.9777 34.839 17.4221 34.839C17.8665 34.839 18.2269 34.4786 18.2269 34.0342V31.9093H23.4585V32.3084C23.4585 32.7528 23.8189 33.1132 24.2633 33.1132C24.7077 33.1132 25.0681 32.7528 25.0681 32.3084V31.9093H25.8393C26.2836 31.9093 26.644 31.5489 26.644 31.1045C26.644 30.6601 26.2836 30.2997 25.8393 30.2997H25.0681V25.0655H30.2997V25.8393C30.2997 26.2836 30.6601 26.644 31.1045 26.644C31.5489 26.644 31.9093 26.2836 31.9093 25.8393V25.0655H32.3084C32.7528 25.0655 33.1132 24.7051 33.1132 24.2607C33.1132 23.8164 32.7528 23.4559 32.3084 23.4559H31.9093V18.2217H34.0342C34.4786 18.2217 34.839 17.8613 34.839 17.4169C34.839 16.9726 34.4786 16.6122 34.0342 16.6122L34.0355 16.6134ZM30.301 11.3818V16.6134H25.0694V11.3818H30.301ZM23.4598 21.0442V23.4572H18.2282V18.223H23.4598V21.0442ZM11.3831 21.0442V18.223H16.6173V23.4572H11.3831V21.0442ZM11.3831 14.9277V11.3818H16.6173V16.6134H11.3831V14.9264V14.9277ZM18.2269 16.6147V11.3831H23.4585V16.6147H18.2269ZM23.4585 4.54186V9.77353H18.2269V4.54186H23.4585ZM11.3818 7.24941V4.54186H16.616V9.77353H11.3818V7.24941ZM4.53799 11.3831H9.77223V16.6147H4.53799V11.3831ZM4.53799 23.4598V18.2256H9.77223V23.4598H4.53799ZM11.3818 30.3036V25.0694H16.616V30.3036H11.3818ZM23.4585 28.3065V30.3036H18.2269V25.0694H23.4585V28.3078V28.3065ZM30.2997 21.3439V23.4585H25.0681V18.2243H30.2997V21.3439Z" fill="#F7B502"/>
<path d="M48.4011 17.768C48.9101 17.5135 49.304 17.1635 49.5831 16.7191C49.8621 16.2734 50.0016 15.7477 50.0016 15.1418C50.0016 14.536 49.8621 14.0361 49.5831 13.5865C49.304 13.137 48.9126 12.7818 48.4088 12.5221C47.9051 12.2638 47.3251 12.1333 46.6701 12.1333H42.6191V22.4507H44.6149V18.1504H44.9585L48.2538 22.4507H50.6759L47.2346 18.1116C47.6622 18.0574 48.051 17.9437 48.4011 17.7693V17.768ZM44.6149 13.7609H46.4789C46.9685 13.7609 47.3444 13.8953 47.6092 14.164C47.8728 14.4327 48.0058 14.7724 48.0058 15.1845C48.0058 15.5965 47.8741 15.9544 47.6092 16.205C47.3457 16.4543 46.9634 16.5796 46.4647 16.5796H44.6149V13.7622V13.7609Z" fill="white"/>
<path d="M56.4714 15.6547C55.9431 15.3511 55.3463 15.2 54.681 15.2C53.977 15.2 53.3402 15.3614 52.7731 15.6844C52.206 16.0073 51.7578 16.4478 51.4297 17.0046C51.1016 17.5626 50.9375 18.193 50.9375 18.8983C50.9375 19.6036 51.1041 20.2482 51.4361 20.8062C51.7681 21.3643 52.2267 21.8048 52.808 22.1277C53.3906 22.4507 54.0532 22.6121 54.796 22.6121C55.3734 22.6121 55.9069 22.5101 56.3952 22.3034C56.8848 22.098 57.3098 21.7893 57.6715 21.3785L56.527 20.234C56.3113 20.4885 56.0568 20.6745 55.7635 20.792C55.4703 20.9096 55.1422 20.9677 54.7805 20.9677C54.3788 20.9677 54.0274 20.885 53.7238 20.7184C53.4203 20.5518 53.1878 20.3102 53.0263 19.9924C52.963 19.8671 52.9152 19.7302 52.8764 19.5868L58.0526 19.5739C58.0913 19.4176 58.1159 19.2729 58.1262 19.1411C58.1352 19.0094 58.1404 18.8789 58.1404 18.7523C58.1404 18.0677 57.9931 17.4554 57.6999 16.918C57.4067 16.3793 56.9959 15.9595 56.4676 15.6559L56.4714 15.6547ZM53.6683 17.064C53.9525 16.8973 54.2845 16.8147 54.6668 16.8147C55.0285 16.8147 55.3321 16.8883 55.5762 17.0356C55.8204 17.1828 56.0116 17.3972 56.1485 17.6814C56.2144 17.8184 56.2648 17.9708 56.3009 18.1387L52.8803 18.1491C52.9152 18.0186 52.9578 17.892 53.0147 17.777C53.1658 17.4683 53.3841 17.2319 53.6683 17.0653V17.064Z" fill="white"/>
<path d="M60.5678 15.728C60.2151 15.728 59.9244 15.843 59.6945 16.0729C59.4646 16.3029 59.3496 16.5935 59.3496 16.9462C59.3496 17.2988 59.4646 17.5778 59.6945 17.8117C59.9244 18.0468 60.2151 18.1643 60.5678 18.1643C60.9204 18.1643 61.1943 18.0468 61.419 17.8117C61.6438 17.5766 61.7562 17.2885 61.7562 16.9462C61.7562 16.6038 61.6438 16.3029 61.419 16.0729C61.1943 15.843 60.9101 15.728 60.5678 15.728Z" fill="white"/>
<path d="M60.5678 20.1602C60.2151 20.1602 59.9244 20.2751 59.6945 20.5051C59.4646 20.735 59.3496 21.0256 59.3496 21.3783C59.3496 21.7309 59.4646 22.0113 59.6945 22.2515C59.9244 22.4918 60.2151 22.6106 60.5678 22.6106C60.9204 22.6106 61.1943 22.4905 61.419 22.2515C61.6438 22.0113 61.7562 21.7206 61.7562 21.3783C61.7562 21.036 61.6438 20.735 61.419 20.5051C61.1943 20.2751 60.9101 20.1602 60.5678 20.1602Z" fill="white"/>
<path d="M68.5348 18.0468H73.2175V16.3288H68.5348V13.8938H73.6425V12.1318H68.5348H68.0065H66.5391V22.4492H68.0065H68.5348H73.7161V20.6885H68.5348V18.0468Z" fill="white"/>
<path d="M80.0854 16.0357C79.8891 15.8316 79.6604 15.6586 79.3956 15.5216C78.9939 15.3162 78.5443 15.2129 78.0457 15.2129C77.3895 15.2129 76.8056 15.3744 76.2915 15.6973C75.7774 16.0202 75.3743 16.4607 75.0811 17.0188C74.7879 17.5768 74.6406 18.2072 74.6406 18.9125C74.6406 19.6178 74.7879 20.234 75.0811 20.7908C75.3743 21.3488 75.7787 21.788 76.2915 22.1109C76.8056 22.4339 77.3843 22.5954 78.0302 22.5954C78.5392 22.5954 78.9965 22.4933 79.4021 22.2866C79.6656 22.1536 79.8904 21.9818 80.0841 21.7802V22.4481H82.0218V15.3589H80.0841V16.0345L80.0854 16.0357ZM79.7044 20.2766C79.3711 20.6383 78.9358 20.8192 78.3984 20.8192C78.0561 20.8192 77.7473 20.7365 77.4735 20.5699C77.1996 20.4032 76.9865 20.1785 76.8353 19.8943C76.6829 19.6101 76.608 19.2781 76.608 18.8957C76.608 18.5134 76.6842 18.1969 76.8353 17.9127C76.9865 17.6285 77.197 17.4037 77.467 17.2371C77.7357 17.0705 78.047 16.9878 78.3984 16.9878C78.7497 16.9878 79.074 17.0692 79.3375 17.2306C79.601 17.3921 79.8116 17.6195 79.9692 17.9127C80.1255 18.2059 80.2043 18.5392 80.2043 18.9112C80.2043 19.4589 80.0376 19.9149 79.7057 20.2766H79.7044Z" fill="white"/>
<path d="M88.3851 15.3833C88.1164 15.2709 87.8051 15.2141 87.4537 15.2141C86.6606 15.2141 86.0547 15.466 85.6336 15.9698C85.6285 15.9763 85.6246 15.9827 85.6194 15.9892V15.3614H83.6973V22.4506H85.6194V18.5469C85.6194 18.0095 85.7486 17.6129 86.0082 17.3584C86.2679 17.104 86.6025 16.9774 87.0132 16.9774C87.2083 16.9774 87.3827 17.0045 87.5338 17.0575C87.685 17.1117 87.8154 17.2021 87.9226 17.3287L89.1266 15.9349C88.9018 15.6804 88.6551 15.497 88.3851 15.3846V15.3833Z" fill="white"/>
<path d="M92.8249 12.4109H90.9028V15.3613H89.2441V17.0483H90.9028V22.4492H92.8249V17.0483H94.4836V15.3613H92.8249V12.4109Z" fill="white"/>
<path d="M100.94 15.5589C100.529 15.329 100.054 15.214 99.5167 15.214C98.9793 15.214 98.4988 15.3316 98.0789 15.5667C97.8567 15.6907 97.6617 15.8418 97.4925 16.0162V11.8386H95.5703V22.4492H97.4925V18.384C97.4925 18.1102 97.5532 17.8634 97.6759 17.6425C97.7986 17.4229 97.9665 17.2537 98.1823 17.1362C98.398 17.0186 98.6421 16.9605 98.916 16.9605C99.3268 16.9605 99.6639 17.0922 99.9287 17.3571C100.192 17.6219 100.325 17.9642 100.325 18.384V22.4492H102.263V17.9435C102.263 17.4061 102.145 16.9308 101.91 16.52C101.675 16.1092 101.352 15.7889 100.941 15.5589H100.94Z" fill="white"/>
<path d="M113.151 20.4753C112.74 20.6562 112.245 20.7466 111.668 20.7466C111.189 20.7466 110.751 20.6639 110.354 20.4973C109.958 20.3306 109.613 20.0968 109.319 19.7933C109.026 19.4897 108.8 19.1254 108.644 18.7004C108.488 18.2754 108.409 17.8027 108.409 17.2847C108.409 16.7667 108.488 16.3081 108.644 15.8831C108.8 15.4581 109.025 15.0912 109.319 14.7825C109.613 14.4738 109.958 14.2387 110.354 14.0785C110.751 13.917 111.183 13.8369 111.652 13.8369C112.2 13.8369 112.679 13.9248 113.09 14.1004C113.501 14.2761 113.848 14.5216 114.133 14.8342L115.498 13.4688C115.019 13.0089 114.468 12.6446 113.847 12.3759C113.226 12.1072 112.495 11.9729 111.652 11.9729C110.899 11.9729 110.199 12.1098 109.553 12.3837C108.907 12.6575 108.344 13.0347 107.865 13.514C107.386 13.9932 107.014 14.5564 106.75 15.201C106.485 15.8469 106.354 16.5419 106.354 17.2847C106.354 18.0274 106.485 18.7224 106.75 19.3683C107.014 20.0142 107.388 20.5787 107.873 21.0631C108.357 21.5475 108.922 21.926 109.567 22.2011C110.213 22.475 110.917 22.6119 111.681 22.6119C112.502 22.6119 113.233 22.4776 113.875 22.2089C114.516 21.9402 115.081 21.5707 115.57 21.1005L114.205 19.7351C113.912 20.049 113.559 20.2958 113.148 20.4766L113.151 20.4753Z" fill="white"/>
<path d="M122.14 18.1773L118.361 12.1318H116.953V22.4492H118.949V16.2875L121.443 20.3359H122.823L125.319 16.3081V22.4492H127.314V12.1318H125.905L122.14 18.1773Z" fill="white"/>
<path d="M135.737 18.1566C135.561 17.7897 135.329 17.4913 135.039 17.2614C134.75 17.0315 134.435 16.8403 134.092 16.6892C133.75 16.538 133.403 16.4024 133.05 16.2861C132.697 16.1686 132.377 16.0433 132.089 15.9115C131.801 15.7797 131.568 15.6273 131.391 15.4568C131.216 15.2863 131.128 15.0576 131.128 14.7747C131.128 14.4518 131.26 14.1999 131.524 14.0191C131.788 13.8382 132.151 13.7478 132.611 13.7478C133.011 13.7478 133.372 13.8266 133.689 13.9829C134.007 14.1392 134.319 14.3846 134.621 14.7166L135.941 13.3964C135.588 12.9753 135.126 12.633 134.554 12.3695C133.981 12.106 133.343 11.9729 132.638 11.9729C131.973 11.9729 131.376 12.0905 130.848 12.3256C130.319 12.5607 129.903 12.8978 129.6 13.3383C129.296 13.7788 129.145 14.3123 129.145 14.9375C129.145 15.4762 129.23 15.9154 129.402 16.2577C129.573 16.6 129.805 16.8842 130.1 17.109C130.393 17.3337 130.711 17.5198 131.053 17.667C131.395 17.8143 131.74 17.9435 132.088 18.0558C132.435 18.1682 132.753 18.2909 133.041 18.4227C133.329 18.5545 133.562 18.7185 133.739 18.9149C133.914 19.1112 134.003 19.3657 134.003 19.6783C134.003 20.04 133.851 20.3242 133.549 20.5296C133.245 20.735 132.834 20.8383 132.316 20.8383C131.739 20.8383 131.252 20.7285 130.857 20.5076C130.46 20.2867 130.106 19.9767 129.792 19.575L128.471 20.8964C128.95 21.4739 129.486 21.904 130.078 22.1882C130.669 22.4724 131.376 22.6132 132.199 22.6132C133.382 22.6132 134.312 22.3368 134.988 21.7839C135.663 21.231 136 20.4753 136 19.5168C136 18.9795 135.913 18.526 135.737 18.1592V18.1566Z" fill="white"/>
</svg>
