<svg width="65" height="65" viewBox="0 0 65 65" fill="none" xmlns="http://www.w3.org/2000/svg">
<path d="M56.553 39.8346V43.7197H46.9393V34.0999H56.553V39.8346ZM43.9789 52.6321V56.3H34.3652V46.6802H43.9789V52.6321ZM21.7849 56.3V46.6802H31.4048V56.3H21.7849ZM9.20463 43.7197V34.0999H18.8245V43.7197H9.20463ZM9.20463 21.5258H18.8245V31.1394H9.20463V21.5258ZM21.7849 13.9292V8.9517H31.4048V18.5654H21.7849V13.923V13.9292ZM43.9789 8.9517V18.5654H34.3652V8.9517H43.9789ZM34.3652 31.1394V21.5258H43.9789V31.1394H34.3652ZM21.7849 28.0425V21.5258H31.4048V31.1394H21.7849V28.0425ZM21.7849 39.2822V34.0999H31.4048V43.7197H21.7849V39.2822ZM43.9789 39.2822V43.7197H34.3652V34.0999H43.9789V39.2822ZM56.553 21.5258V31.1394H46.9393V21.5258H56.553ZM63.4172 31.1394H59.5134V21.5258H60.2457C61.065 21.5258 61.7229 20.8617 61.7229 20.0487C61.7229 19.2356 61.0588 18.5716 60.2457 18.5716H59.5134V17.1565C59.5134 16.3373 58.8493 15.6794 58.0363 15.6794C57.2233 15.6794 56.5592 16.3435 56.5592 17.1565V18.5716H46.9455V8.95791H48.3606C49.1798 8.95791 49.8377 8.29383 49.8377 7.48079C49.8377 6.66776 49.1736 6.00368 48.3606 6.00368H46.9455V5.27133C46.9455 4.45209 46.2814 3.79421 45.4684 3.79421C44.6554 3.79421 43.9913 4.4583 43.9913 5.27133V6.00368H34.3776V2.08747C34.3776 1.26823 33.7136 0.610352 32.9005 0.610352C32.0875 0.610352 31.4234 1.27443 31.4234 2.08747V5.99127H21.8035V5.25892C21.8035 4.43968 21.1395 3.7818 20.3264 3.7818C19.5134 3.7818 18.8493 4.44588 18.8493 5.25892V5.99127H17.4281C16.6088 5.99127 15.9509 6.65535 15.9509 7.46838C15.9509 8.28141 16.615 8.9455 17.4281 8.9455H18.8493V18.5591H9.22946V17.1441C9.22946 16.3249 8.56538 15.667 7.75234 15.667C6.93931 15.667 6.27523 16.3311 6.27523 17.1441V18.5591H5.54288C4.72364 18.5591 4.06576 19.2232 4.06576 20.0363C4.06576 20.8493 4.72984 21.5134 5.54288 21.5134H6.27523V31.127H2.3404C1.52116 31.127 0.863281 31.7911 0.863281 32.6041C0.863281 33.4172 1.52736 34.0813 2.3404 34.0813H6.2442V43.7011H5.51185C4.69261 43.7011 4.03473 44.3652 4.03473 45.1782C4.03473 45.9913 4.69881 46.6553 5.51185 46.6553H6.2442V48.0766C6.2442 48.8958 6.90828 49.5537 7.72131 49.5537C8.53434 49.5537 9.19843 48.8896 9.19843 48.0766V46.6553H18.8183V56.2752H17.397C16.5778 56.2752 15.9199 56.9393 15.9199 57.7523C15.9199 58.5654 16.584 59.2294 17.397 59.2294H18.8183V59.9618C18.8183 60.781 19.4824 61.4389 20.2954 61.4389C21.1084 61.4389 21.7725 60.7748 21.7725 59.9618V59.2294H31.3924V63.1332C31.3924 63.9525 32.0565 64.6104 32.8695 64.6104C33.6825 64.6104 34.3466 63.9463 34.3466 63.1332V59.2294H43.9603V59.9618C43.9603 60.781 44.6243 61.4389 45.4374 61.4389C46.2504 61.4389 46.9145 60.7748 46.9145 59.9618V59.2294H48.3295C49.1488 59.2294 49.8066 58.5654 49.8066 57.7523C49.8066 56.9393 49.1426 56.2752 48.3295 56.2752H46.9145V46.6553H56.5281V48.0766C56.5281 48.8958 57.1922 49.5537 58.0052 49.5537C58.8183 49.5537 59.4824 48.8896 59.4824 48.0766V46.6553H60.2147C61.034 46.6553 61.6918 45.9913 61.6918 45.1782C61.6918 44.3652 61.0277 43.7011 60.2147 43.7011H59.4824V34.0813H63.3862C64.2054 34.0813 64.8633 33.4172 64.8633 32.6041C64.8633 31.7911 64.1992 31.127 63.3862 31.127" fill="#F7B502"/>
</svg>
