<svg width="148" height="48" viewBox="0 0 148 48" fill="none" xmlns="http://www.w3.org/2000/svg">
<path d="M16.5387 20.5987C16.4418 20.5987 16.3449 20.5848 16.2479 20.5571C15.6618 20.3956 15.3157 19.791 15.4772 19.2002C16.3495 16.011 19.7232 6.05576 23.623 2.22503C25.3444 0.531204 27.7259 -0.290326 29.8304 0.0927469C32.3918 0.558896 34.3255 2.96349 34.0579 5.34961C33.864 7.04806 32.6733 8.59881 30.7026 9.72033C30.0981 10.0665 29.475 10.348 28.875 10.6249C28.0628 10.9988 27.2966 11.3495 26.6228 11.8111C25.7552 12.4111 24.8045 13.5188 24.9798 14.6495C25.0952 15.3926 25.7321 16.1126 26.6044 16.4818C27.3982 16.8187 28.3812 16.9295 29.6965 16.8233C30.7165 16.7403 31.7411 16.551 32.7425 16.2603C33.3287 16.0895 33.9379 16.4264 34.1086 17.0126C34.2794 17.5987 33.9425 18.2079 33.3564 18.3787C32.2118 18.711 31.0395 18.9279 29.8719 19.0202C28.1828 19.1541 26.872 18.9925 25.7367 18.5079C24.1583 17.8341 23.0322 16.4818 22.8015 14.9818C22.4738 12.8449 23.9137 11.0034 25.3721 9.99264C26.2075 9.41572 27.0982 9.00496 27.9612 8.61265C28.5474 8.34496 29.0966 8.09112 29.6181 7.79574C30.2457 7.44036 31.718 6.46191 31.8749 5.09115C32.0272 3.74809 30.7211 2.48811 29.4473 2.25734C28.0397 2.0035 26.4013 2.59426 25.1737 3.79886C23.3691 5.57115 19.8247 11.7049 17.6094 19.7818C17.4756 20.271 17.0325 20.5941 16.5479 20.5941" fill="#00A341"/>
<path d="M39.6385 9.94632C39.1031 9.94632 38.4524 10.1263 37.9078 10.4402C36.4771 11.2617 35.3279 12.5448 34.4972 14.2432C34.2664 14.714 34.1095 15.2632 34.0588 15.8263C36.2417 14.9817 38.2032 13.6755 39.7908 12.0001C40.4277 11.3263 40.7461 10.6386 40.5708 10.3248C40.5154 10.2279 40.4092 10.0848 40.1185 10.0063C39.9754 9.9694 39.8139 9.95093 39.6431 9.95093M44.2121 28.0569C41.0092 28.0569 37.8524 26.8108 35.5264 24.5723C35.0879 24.1477 35.0741 23.4508 35.4987 23.0123C35.9233 22.5739 36.6202 22.56 37.0586 22.9846C39.2693 25.1123 42.5322 26.1785 45.5736 25.7631C46.109 25.6892 47.8996 25.3569 48.3612 24.1846C48.5319 23.7508 48.4858 23.28 48.2181 22.7816C47.7981 21.9877 46.9028 21.3185 45.9936 21.1154C44.6044 20.8016 43.1183 21.0924 41.5399 21.397C41.0969 21.48 40.6446 21.5723 40.1877 21.6462C37.1509 22.14 34.7695 21.6093 33.3019 20.1047C32.6557 19.4401 32.2127 18.5955 31.9912 17.6632C31.9912 17.6585 31.9912 17.6493 31.9865 17.6447C31.9727 17.5939 31.9589 17.5385 31.9542 17.4878C31.6773 16.1401 31.8527 14.6355 32.5173 13.2786C33.5465 11.1786 34.991 9.58171 36.8094 8.53403C37.7878 7.97096 39.32 7.50481 40.7 7.88327C41.4892 8.10019 42.1122 8.57095 42.4907 9.24479C43.1922 10.4863 42.7906 12.0463 41.3923 13.5232C39.4862 15.5355 37.114 17.077 34.4787 18.0324C34.5895 18.2216 34.7233 18.4016 34.8803 18.5632C36.0756 19.7862 38.2309 19.7308 39.8323 19.4724C40.2569 19.4031 40.6769 19.3201 41.12 19.237C42.8506 18.9047 44.6367 18.5585 46.4736 18.9693C48.0196 19.3154 49.4365 20.3862 50.1611 21.757C50.7241 22.8185 50.8118 23.9723 50.4057 25.0015C49.7872 26.5661 48.135 27.6461 45.8644 27.9554C45.3105 28.0292 44.7567 28.0661 44.2075 28.0661" fill="#54BFE8"/>
<path d="M37.6406 45.323C36.5238 45.323 35.4992 44.9168 34.7608 44.1737C32.9193 42.3138 33.4501 39.4984 33.8331 37.4446C34.027 36.4061 34.3362 33.9092 32.9793 33.1754C32.4624 32.8939 31.7194 32.9308 31.0363 33.2677C30.4133 33.5769 29.8133 34.1262 29.1487 34.9846C28.3365 36.0369 27.6765 37.2 27.1827 38.4507C26.9565 39.0184 26.315 39.2953 25.752 39.0692C25.1843 38.843 24.9074 38.2015 25.1335 37.6384C25.7058 36.1984 26.4673 34.8508 27.4042 33.6369C27.9534 32.9215 28.8303 31.9016 30.0579 31.2923C31.3917 30.6323 32.8732 30.6093 34.0316 31.2323C35.9146 32.2523 36.6161 34.6015 36.0069 37.8507C35.693 39.5122 35.3054 41.5845 36.3345 42.623C36.8607 43.1537 37.5945 43.1491 37.9822 43.0937C38.9098 42.9691 39.7821 42.4061 40.2067 41.6538C41.3189 39.6876 40.3774 37.2369 39.9205 36.2769C39.4082 35.1923 38.7344 34.1908 38.0191 33.1292C37.4929 32.3446 36.9484 31.5369 36.4684 30.6831C34.9915 28.0616 34.5669 25.5555 35.2315 23.4463C35.4161 22.8647 36.0346 22.5417 36.6161 22.7263C37.1976 22.9109 37.5206 23.5293 37.336 24.1109C36.7314 26.0262 37.576 28.1539 38.3883 29.6031C38.8267 30.3785 39.3206 31.1216 39.8467 31.9016C40.5713 32.9815 41.3235 34.1031 41.9097 35.3354C43.1881 38.0307 43.2619 40.7307 42.122 42.7476C41.3558 44.0999 39.879 45.0737 38.2683 45.2906C38.056 45.3183 37.8483 45.3322 37.6406 45.3322" fill="#E8373D"/>
<path d="M26.9417 39.0971C26.6094 40.071 26.3832 41.0725 26.2678 42.0879C26.1432 43.1909 26.2078 43.994 26.4663 44.6217C26.7386 45.2771 27.3063 45.7571 27.8416 45.7894C28.317 45.8217 28.8662 45.5032 29.2123 45.0001C29.5538 44.4971 29.7477 43.8048 29.7846 42.9371C29.8446 41.4833 29.3969 40.2463 28.5847 39.6233C28.1093 39.2587 27.5278 39.111 26.9417 39.0971ZM27.9016 47.9955C27.837 47.9955 27.7724 47.9955 27.7078 47.9909C26.3186 47.9078 25.031 46.9201 24.4264 45.4709C23.8864 44.174 23.9649 42.7756 24.071 41.8386C24.1495 41.1417 24.2741 40.4494 24.4448 39.7664C23.448 40.3156 22.5572 41.1002 21.625 41.9309C21.3988 42.134 21.1681 42.3371 20.9373 42.5356C19.3174 43.934 17.1206 45.554 14.4715 45.6417C12.9254 45.6878 11.287 45.0325 10.2024 43.9109C9.30248 42.9832 8.8502 41.8248 8.92865 40.6479C9.01634 39.3048 9.72246 38.1095 10.9686 37.191C11.9516 36.4664 13.2346 35.9541 14.573 35.751C15.3253 35.6356 16.0822 35.5849 16.816 35.5341C18.2467 35.4372 19.6035 35.3449 20.7573 34.7956C21.3065 34.5372 21.9665 34.7679 22.225 35.3218C22.488 35.871 22.2526 36.531 21.6988 36.7895C20.1666 37.5141 18.5374 37.6248 16.9637 37.7356C16.2437 37.7864 15.5699 37.8325 14.9053 37.9341C13.1008 38.211 11.2224 39.2817 11.1255 40.791C11.0793 41.4925 11.4578 42.0417 11.7808 42.374C12.4362 43.0479 13.4654 43.4725 14.393 43.4355C16.3498 43.3709 18.1451 42.0279 19.4882 40.8648C19.7097 40.671 19.9312 40.4771 20.1527 40.2787C21.2696 39.291 22.4188 38.271 23.8495 37.5879C26.434 36.3556 28.677 36.9279 29.9092 37.8695C31.3168 38.9448 32.0737 40.8233 31.9768 43.034C31.9214 44.3217 31.5984 45.4063 31.0168 46.2509C30.2692 47.3401 29.0831 48.0001 27.8878 48.0001" fill="#00A2EA"/>
<path d="M15.7595 37.0201C13.0642 37.0201 10.3643 36.9324 7.69214 36.7571C6.39989 36.674 5.13995 36.554 3.94463 36.0601C2.43547 35.4371 1.32783 34.2555 0.981688 32.9033C0.704778 31.8233 0.917076 30.6694 1.58166 29.6541C2.38008 28.4264 3.77386 27.5172 5.20918 27.2818C7.62753 26.8849 9.95357 27.9325 11.7073 28.8925C13.0734 29.6402 14.4441 30.2541 15.2333 29.7002C15.7548 29.331 16.0733 28.0479 15.1595 26.3402C14.5226 25.1541 13.6688 24.088 12.6119 23.1741C12.1504 22.7726 12.0996 22.0803 12.5011 21.6188C12.898 21.1572 13.5949 21.1111 14.0565 21.508C15.3164 22.5972 16.341 23.8757 17.1025 25.2972C18.187 27.3187 18.4593 30.1248 16.5025 31.5048C14.4811 32.9309 11.9842 31.5648 10.6458 30.831C9.2013 30.0417 7.32293 29.1694 5.56916 29.4602C4.73382 29.5987 3.89386 30.1479 3.42773 30.8633C3.20158 31.2094 2.96159 31.754 3.11851 32.3586C3.28927 33.0325 3.93078 33.6694 4.7892 34.0248C5.67531 34.394 6.69065 34.4817 7.83521 34.5602C12.2565 34.8509 16.7471 34.8971 21.1777 34.6986C21.7869 34.6709 22.3038 35.1417 22.3315 35.7509C22.3591 36.3601 21.8884 36.8771 21.2792 36.9047C19.447 36.9878 17.6055 37.0294 15.7595 37.0294" fill="#E96BB0"/>
<path d="M6.13196 20.4048C5.30585 20.4048 4.40128 20.6817 4.12898 21.2263C4.03668 21.4109 3.93976 21.8401 4.17052 22.2648C4.53973 22.9386 5.59661 23.3909 7.14269 23.5432C8.1811 23.6447 9.54257 23.4878 10.6133 23.1417C11.061 22.9986 11.4579 22.7771 11.7809 22.5094C10.2164 21.3878 8.3934 20.654 6.54733 20.4279C6.41349 20.4094 6.27503 20.4048 6.13196 20.4048ZM7.79804 25.7816C7.49805 25.7816 7.2073 25.7678 6.935 25.7401C3.99514 25.4586 2.75828 24.2724 2.24138 23.3309C1.6091 22.1817 1.78448 20.9771 2.16292 20.2294C3.00288 18.5679 5.16739 18.0325 6.82424 18.2356C8.83645 18.4848 10.821 19.2279 12.5655 20.3679C12.4178 19.6156 11.9517 18.8771 11.4579 18.3325C10.9179 17.7417 10.2718 17.2387 9.58872 16.6987C9.06721 16.2879 8.53185 15.8679 8.01957 15.3925C6.40887 13.8879 5.59199 12.1479 5.72122 10.4957C5.82275 9.17106 6.5381 7.9803 7.73343 7.14031C9.08567 6.18955 10.8717 5.86186 12.3901 6.28186C14.3239 6.81723 16.6961 8.64952 17.5683 12.1895C18.1868 14.6956 17.896 17.3079 17.6376 19.6109C17.5683 20.2156 17.0238 20.654 16.4192 20.5848C15.8146 20.5155 15.3761 19.9709 15.4454 19.3663C15.6946 17.1417 15.9484 14.8433 15.4269 12.7202C14.8962 10.5649 13.4747 8.87106 11.804 8.40953C10.904 8.1603 9.82871 8.36799 9.0026 8.9449C8.62877 9.20798 7.99188 9.78028 7.92265 10.6618C7.82112 11.9726 8.88722 13.1772 9.52873 13.7772C9.96717 14.1879 10.4471 14.5618 10.9502 14.9587C11.6748 15.5264 12.4224 16.1125 13.0824 16.8371C14.5777 18.4663 15.1546 20.4417 14.6239 22.1171C14.5454 22.3617 14.4439 22.5971 14.3239 22.8278C14.3147 22.8463 14.3054 22.8648 14.2916 22.8878C13.6962 23.9586 12.6209 24.8124 11.2871 25.237C10.2164 25.5832 8.9426 25.7724 7.79804 25.7724" fill="#F7B502"/>
<path d="M74.9332 24.6929C75.6624 24.3283 76.2254 23.8298 76.6223 23.1929C77.0193 22.556 77.2223 21.8037 77.2223 20.936C77.2223 20.0683 77.0239 19.3529 76.6223 18.7114C76.2254 18.0653 75.6624 17.5576 74.9424 17.1883C74.2225 16.8191 73.3917 16.6299 72.4549 16.6299H66.6582V31.399H69.515V25.2421H70.0088L74.7255 31.399H78.1915L73.2625 25.1821C73.8763 25.1036 74.4348 24.9467 74.9332 24.6975V24.6929ZM69.515 18.956H72.1826C72.8841 18.956 73.424 19.1499 73.7979 19.5329C74.1763 19.9206 74.3655 20.4052 74.3655 20.9914C74.3655 21.5775 74.1763 22.0944 73.7979 22.4498C73.4194 22.8052 72.8748 22.9852 72.1595 22.9852H69.515V18.9514V18.956Z" fill="black"/>
<path d="M86.4892 21.6698C85.7323 21.236 84.8785 21.019 83.9278 21.019C82.9217 21.019 82.0079 21.2498 81.1956 21.7113C80.3834 22.1729 79.7419 22.8052 79.2757 23.6036C78.805 24.4021 78.5742 25.3067 78.5742 26.3128C78.5742 27.319 78.8142 28.2467 79.2896 29.0451C79.7649 29.8436 80.4203 30.4712 81.2556 30.9374C82.0864 31.3989 83.0371 31.6297 84.1032 31.6297C84.9293 31.6297 85.6908 31.482 86.3923 31.1866C87.0938 30.8912 87.703 30.4528 88.2199 29.862L86.5815 28.2236C86.2723 28.5882 85.9077 28.8559 85.4877 29.022C85.0678 29.1882 84.597 29.2759 84.0801 29.2759C83.5078 29.2759 83.0002 29.1559 82.5663 28.9205C82.1325 28.6805 81.8002 28.3343 81.5695 27.882C81.4772 27.702 81.4125 27.5082 81.3572 27.3005L88.7645 27.2821C88.8199 27.0559 88.8568 26.8528 88.8707 26.6636C88.8845 26.4744 88.8937 26.2898 88.8937 26.1051C88.8937 25.1267 88.6814 24.2498 88.2615 23.479C87.8415 22.7083 87.2553 22.1083 86.4985 21.6744L86.4892 21.6698ZM82.4787 23.6867C82.8848 23.4467 83.3601 23.3313 83.9047 23.3313C84.4216 23.3313 84.8555 23.4375 85.2062 23.6452C85.557 23.8529 85.8293 24.1621 86.0231 24.5682C86.1154 24.7621 86.1892 24.9836 86.24 25.2236L81.3433 25.2375C81.3941 25.0482 81.4541 24.8682 81.5372 24.7067C81.7541 24.2636 82.0633 23.9267 82.474 23.6867H82.4787Z" fill="black"/>
<path d="M92.35 21.7715C91.8469 21.7715 91.427 21.9376 91.0993 22.2653C90.7716 22.593 90.6055 23.013 90.6055 23.5161C90.6055 24.0192 90.7716 24.4207 91.0993 24.7576C91.427 25.0945 91.8469 25.2607 92.35 25.2607C92.8531 25.2607 93.2453 25.0945 93.5684 24.7576C93.8915 24.4207 94.053 24.0099 94.053 23.5161C94.053 23.0222 93.8915 22.5976 93.5684 22.2653C93.2453 21.9376 92.8392 21.7715 92.35 21.7715Z" fill="black"/>
<path d="M92.35 28.1172C91.8469 28.1172 91.427 28.2833 91.0993 28.611C90.7716 28.9387 90.6055 29.3587 90.6055 29.8618C90.6055 30.3649 90.7716 30.771 91.0993 31.1125C91.427 31.4541 91.8469 31.6248 92.35 31.6248C92.8531 31.6248 93.2453 31.4541 93.5684 31.1125C93.8915 30.771 94.053 30.351 94.053 29.8618C94.053 29.3726 93.8915 28.9433 93.5684 28.611C93.2453 28.2833 92.8392 28.1172 92.35 28.1172Z" fill="black"/>
<path d="M99.6576 25.0941H106.359V22.6342H99.6576V19.145H106.968V16.625H99.6576H98.9053H96.8008V31.3941H98.9053H107.074V28.8741H99.6576V25.0941Z" fill="black"/>
<path d="M116.188 22.214C115.907 21.9233 115.579 21.674 115.201 21.4802C114.628 21.1848 113.982 21.0371 113.267 21.0371C112.33 21.0371 111.49 21.2679 110.756 21.7294C110.022 22.1909 109.446 22.8232 109.021 23.6217C108.601 24.4201 108.389 25.3248 108.389 26.3309C108.389 27.337 108.601 28.2232 109.021 29.0216C109.441 29.8201 110.018 30.4524 110.756 30.9139C111.49 31.3755 112.321 31.6062 113.244 31.6062C113.973 31.6062 114.628 31.4585 115.21 31.1632C115.588 30.9739 115.911 30.7247 116.188 30.4385V31.3939H118.962V21.2494H116.188V22.214ZM115.644 28.2832C115.168 28.8001 114.545 29.0586 113.775 29.0586C113.285 29.0586 112.842 28.9386 112.45 28.7032C112.058 28.4632 111.753 28.1447 111.536 27.7386C111.319 27.3324 111.209 26.857 111.209 26.3124C111.209 25.7678 111.319 25.3109 111.536 24.9048C111.753 24.4986 112.053 24.1755 112.441 23.9402C112.824 23.7002 113.272 23.5848 113.775 23.5848C114.278 23.5848 114.739 23.7002 115.118 23.9309C115.496 24.1617 115.796 24.4894 116.022 24.9094C116.244 25.3294 116.359 25.8047 116.359 26.3355C116.359 27.1201 116.119 27.7709 115.644 28.2878V28.2832Z" fill="black"/>
<path d="M128.068 21.2771C127.68 21.1156 127.237 21.0371 126.734 21.0371C125.599 21.0371 124.731 21.3971 124.131 22.1171C124.122 22.1263 124.117 22.1402 124.108 22.1494V21.2448H121.357V31.3893H124.108V25.8001C124.108 25.0294 124.293 24.4617 124.667 24.0971C125.036 23.7325 125.516 23.5525 126.106 23.5525C126.388 23.5525 126.637 23.5894 126.854 23.6678C127.071 23.7463 127.256 23.8755 127.413 24.0555L129.134 22.0617C128.811 21.6971 128.46 21.434 128.072 21.2725L128.068 21.2771Z" fill="black"/>
<path d="M134.422 17.0269H131.672V21.2499H129.295V23.6637H131.672V31.3944H134.422V23.6637H136.795V21.2499H134.422V17.0269Z" fill="black"/>
<path d="M147.423 22.9065C147.086 22.3204 146.625 21.8589 146.038 21.5312C145.452 21.2035 144.769 21.0373 143.999 21.0373C143.228 21.0373 142.54 21.2035 141.94 21.5404C141.622 21.7158 141.345 21.9327 141.1 22.1819V16.2051H138.35V31.3941H141.1V25.5742C141.1 25.1819 141.188 24.8265 141.363 24.5127C141.539 24.1988 141.779 23.9542 142.088 23.7881C142.397 23.6219 142.748 23.5342 143.14 23.5342C143.726 23.5342 144.211 23.7235 144.589 24.1019C144.968 24.4804 145.157 24.9696 145.157 25.5742V31.3941H147.931V24.9465C147.931 24.1758 147.765 23.4973 147.428 22.9065H147.423Z" fill="black"/>
</svg>
