<svg width="12" height="12" viewBox="0 0 12 12" fill="none" xmlns="http://www.w3.org/2000/svg">
    <path
        d="M1.06659 1.21045H10.9264C11.2545 1.21045 11.4594 1.56804 11.2961 1.85331L10.1752 3.75785C10.0411 3.98575 9.74694 4.06069 9.52013 3.92477C9.29552 3.79017 9.22176 3.49946 9.35502 3.27406L10.005 2.17474H1.98801L4.64382 6.6667L4.77105 6.88902H5.93247C6.16916 6.88902 6.36104 7.0809 6.36104 7.31759C6.36104 7.55429 6.16916 7.74616 5.93247 7.74616H4.77239V9.83545H7.2206H7.22194H7.67953C7.95568 9.83545 8.17953 10.0593 8.17953 10.3355V10.3712C8.17953 10.6082 7.98935 10.7997 7.75364 10.7997H4.23935C4.00364 10.7997 3.81346 10.6082 3.81346 10.3712V7.14884L0.698282 1.85331C0.533549 1.56804 0.73846 1.21045 1.06659 1.21045Z"
        fill="currentColor" />
    <path fill-rule="evenodd" clip-rule="evenodd"
        d="M9.49999 4.50049C9.85219 4.50049 10.1377 4.78601 10.1377 5.13821V5.53381C10.3448 5.60909 10.5348 5.71999 10.7003 5.8591L11.0433 5.66104C11.3483 5.48494 11.7384 5.58945 11.9145 5.89447C12.0906 6.19948 11.9861 6.58951 11.681 6.76561L11.3382 6.96353C11.3568 7.06905 11.3664 7.17762 11.3664 7.28845C11.3664 7.39927 11.3568 7.50784 11.3382 7.61336L11.681 7.81128C11.9861 7.98738 12.0906 8.37741 11.9145 8.68243C11.7384 8.98744 11.3483 9.09195 11.0433 8.91585L10.7003 8.71779C10.5348 8.8569 10.3448 8.9678 10.1377 9.04309V9.43868C10.1377 9.79089 9.85219 10.0764 9.49999 10.0764C9.14778 10.0764 8.86226 9.79089 8.86226 9.43868V9.04309C8.65518 8.9678 8.4652 8.85691 8.29971 8.7178L7.95669 8.91585C7.65167 9.09195 7.26165 8.98744 7.08555 8.68243C6.90944 8.37741 7.01395 7.98738 7.31897 7.81128L7.66174 7.61338C7.64322 7.50785 7.63356 7.39928 7.63356 7.28845C7.63356 7.17761 7.64322 7.06904 7.66174 6.96351L7.31897 6.76561C7.01395 6.58951 6.90944 6.19948 7.08555 5.89447C7.26165 5.58945 7.65167 5.48494 7.95669 5.66104L8.29971 5.85909C8.4652 5.71998 8.65518 5.60909 8.86226 5.53381V5.13821C8.86226 4.78601 9.14778 4.50049 9.49999 4.50049ZM10.0086 6.98731C10.0097 6.98919 10.0107 6.99107 10.0118 6.99295C10.013 6.995 10.0142 6.99703 10.0154 6.99905C10.0635 7.08459 10.091 7.18331 10.091 7.28845C10.091 7.39358 10.0635 7.4923 10.0154 7.57783L10.0118 7.58394L10.0086 7.58959C9.90565 7.76309 9.71645 7.87939 9.50009 7.87943H9.49999C9.28395 7.87943 9.09499 7.76351 8.9919 7.59048L8.98818 7.58394L8.98408 7.57694C8.93626 7.49162 8.909 7.39321 8.909 7.28845C8.909 7.18368 8.93626 7.08527 8.98408 6.99995L8.98818 6.99295L8.9919 6.98641C9.09499 6.81338 9.28395 6.69746 9.49999 6.69746C9.71639 6.69746 9.90564 6.81378 10.0086 6.98731Z"
        fill="currentColor" />
</svg>