<svg width="14" height="14" viewBox="0 0 14 14" fill="none" xmlns="http://www.w3.org/2000/svg">
<path fill-rule="evenodd" clip-rule="evenodd" d="M4.13066 2.58824C4.13066 2.26336 4.39402 2 4.71889 2H11.4101C11.7349 2 11.9983 2.26336 11.9983 2.58824V9.27941C11.9983 9.60429 11.7349 9.86765 11.4101 9.86765C11.0852 9.86765 10.8218 9.60429 10.8218 9.27941V4.00836L8.29684 6.53335C8.06712 6.76307 7.69467 6.76307 7.46495 6.53335C7.23523 6.30363 7.23523 5.93118 7.46495 5.70146L9.98994 3.17647H4.71889C4.39402 3.17647 4.13066 2.91311 4.13066 2.58824ZM10.6517 11.828C10.422 12.0577 10.0496 12.0577 9.81984 11.828L2.17278 4.18094C1.94306 3.95122 1.94306 3.57877 2.17278 3.34905C2.4025 3.11933 2.77495 3.11933 3.00467 3.34905L10.6517 10.9961C10.8814 11.2258 10.8814 11.5983 10.6517 11.828ZM5.35658 8.64299C5.5863 8.87271 5.5863 9.24516 5.35658 9.47488L3.59187 11.2396C3.36215 11.4693 2.9897 11.4693 2.75998 11.2396C2.53026 11.0099 2.53026 10.6374 2.75998 10.4077L4.52469 8.64299C4.75441 8.41327 5.12686 8.41327 5.35658 8.64299Z" fill="currentColor"/>
</svg>
