<svg width="14" height="14" viewBox="0 0 14 14" fill="none" xmlns="http://www.w3.org/2000/svg">
<path d="M13.048 12.5894L12.2198 7.8144H12.4995C12.7245 7.8144 12.9058 7.63315 12.9058 7.40815V4.40815C12.9058 4.18315 12.7245 4.0019 12.4995 4.0019H8.65578V1.15815C8.65578 0.93315 8.47453 0.7519 8.24953 0.7519H5.74953C5.52453 0.7519 5.34328 0.93315 5.34328 1.15815V4.0019H1.49953C1.27453 4.0019 1.09328 4.18315 1.09328 4.40815V7.40815C1.09328 7.63315 1.27453 7.8144 1.49953 7.8144H1.77921L0.95109 12.5894C0.940942 12.6477 0.943679 12.7075 0.959108 12.7646C0.974538 12.8218 1.00229 12.8748 1.0404 12.9201C1.07852 12.9654 1.12609 13.0017 1.17976 13.0267C1.23343 13.0516 1.29191 13.0645 1.35109 13.0644H12.648C12.6714 13.0644 12.6948 13.0628 12.7167 13.0581C12.7693 13.0493 12.8197 13.0301 12.8649 13.0017C12.91 12.9734 12.9491 12.9363 12.9799 12.8927C13.0107 12.8492 13.0326 12.7999 13.0443 12.7479C13.0559 12.6958 13.0572 12.6419 13.048 12.5894V12.5894ZM2.18703 5.09565H6.43703V1.84565H7.56203V5.09565H11.812V6.72065H2.18703V5.09565ZM9.49953 11.9706V9.53315C9.49953 9.4644 9.44328 9.40815 9.37453 9.40815H8.62453C8.55578 9.40815 8.49953 9.4644 8.49953 9.53315V11.9706H5.49953V9.53315C5.49953 9.4644 5.44328 9.40815 5.37453 9.40815H4.62453C4.55578 9.40815 4.49953 9.4644 4.49953 9.53315V11.9706H2.16828L2.87297 7.90815H11.1245L11.8292 11.9706H9.49953Z" fill="currentColor"/>
</svg>
