<svg width="15" height="14" viewBox="0 0 15 14" fill="none" xmlns="http://www.w3.org/2000/svg">
<path fill-rule="evenodd" clip-rule="evenodd" d="M12.5427 3.13644L8.37745 1.0538C7.9396 0.836232 7.42514 0.836232 6.98729 1.0538L2.82086 3.13702C2.29121 3.40021 1.95543 3.94169 1.95512 4.53441L1.95512 9.49137C1.951 10.0815 2.28392 10.6263 2.81422 10.8935L6.98093 12.9769C7.42077 13.197 7.93877 13.197 8.37875 12.9768L12.5439 10.8942C13.0735 10.6311 13.4093 10.0896 13.4096 9.49685V4.53469C13.4093 3.94169 13.0735 3.40021 12.5427 3.13644ZM7.68238 5.91025L3.64262 3.89037L7.45183 1.98576C7.59647 1.91389 7.76774 1.91381 7.91358 1.9861L11.7221 3.89037L7.68238 5.91025ZM8.20302 6.81416L12.3683 4.73152V9.49657C12.3682 9.69387 12.2563 9.87437 12.0793 9.96229L8.20302 11.9004V6.81416ZM7.1617 6.81414L2.99643 4.7315L2.99642 9.49499C2.99504 9.69292 3.10602 9.87452 3.28135 9.96286L7.1617 11.903V6.81414Z" fill="#1677FF"/>
</svg>
