<svg width="24" height="18" viewBox="0 0 24 18" fill="none" xmlns="http://www.w3.org/2000/svg">
<path d="M4.04805 9C4.36588 9.26143 4.622 9.58989 4.79805 9.96187C5.24805 10.89 5.24805 12.0244 5.24805 13.125C5.24805 15.4041 5.3418 16.5 7.49805 16.5C7.69696 16.5 7.88772 16.579 8.02838 16.7197C8.16903 16.8603 8.24805 17.0511 8.24805 17.25C8.24805 17.4489 8.16903 17.6397 8.02838 17.7803C7.88772 17.921 7.69696 18 7.49805 18C5.8593 18 4.7493 17.4244 4.19805 16.2881C3.74805 15.36 3.74805 14.2256 3.74805 13.125C3.74805 10.8459 3.6543 9.75 1.49805 9.75C1.29913 9.75 1.10837 9.67098 0.967717 9.53033C0.827065 9.38968 0.748047 9.19891 0.748047 9C0.748047 8.80109 0.827065 8.61032 0.967717 8.46967C1.10837 8.32902 1.29913 8.25 1.49805 8.25C3.6543 8.25 3.74805 7.15406 3.74805 4.875C3.74805 3.77625 3.74805 2.64 4.19805 1.71187C4.75117 0.575625 5.86117 0 7.49992 0C7.69883 0 7.8896 0.0790178 8.03025 0.21967C8.1709 0.360322 8.24992 0.551088 8.24992 0.75C8.24992 0.948912 8.1709 1.13968 8.03025 1.28033C7.8896 1.42098 7.69883 1.5 7.49992 1.5C5.34367 1.5 5.24992 2.59594 5.24992 4.875C5.24992 5.97375 5.24992 7.11 4.79992 8.03813C4.62333 8.41029 4.36656 8.73877 4.04805 9ZM22.4999 8.25C20.3437 8.25 20.2499 7.15406 20.2499 4.875C20.2499 3.77625 20.2499 2.64 19.7999 1.71187C19.2487 0.575625 18.1387 0 16.4999 0C16.301 0 16.1102 0.0790178 15.9696 0.21967C15.8289 0.360322 15.7499 0.551088 15.7499 0.75C15.7499 0.948912 15.8289 1.13968 15.9696 1.28033C16.1102 1.42098 16.301 1.5 16.4999 1.5C18.6562 1.5 18.7499 2.59594 18.7499 4.875C18.7499 5.97375 18.7499 7.11 19.1999 8.03813C19.376 8.41011 19.6321 8.73857 19.9499 9C19.6321 9.26143 19.376 9.58989 19.1999 9.96187C18.7499 10.89 18.7499 12.0244 18.7499 13.125C18.7499 15.4041 18.6562 16.5 16.4999 16.5C16.301 16.5 16.1102 16.579 15.9696 16.7197C15.8289 16.8603 15.7499 17.0511 15.7499 17.25C15.7499 17.4489 15.8289 17.6397 15.9696 17.7803C16.1102 17.921 16.301 18 16.4999 18C18.1387 18 19.2487 17.4244 19.7999 16.2881C20.2499 15.36 20.2499 14.2256 20.2499 13.125C20.2499 10.8459 20.3437 9.75 22.4999 9.75C22.6988 9.75 22.8896 9.67098 23.0303 9.53033C23.1709 9.38968 23.2499 9.19891 23.2499 9C23.2499 8.80109 23.1709 8.61032 23.0303 8.46967C22.8896 8.32902 22.6988 8.25 22.4999 8.25Z" fill="currentColor"/>
</svg>
