<svg width="10" height="10" viewBox="0 0 10 10" fill="none" xmlns="http://www.w3.org/2000/svg">
<path d="M9.12471 0.5H3.12471C3.02526 0.500005 2.92988 0.539515 2.85955 0.60984C2.78923 0.680165 2.74972 0.775545 2.74971 0.875V2.75005H0.874664C0.77521 2.75005 0.67983 2.78956 0.609505 2.85989C0.53918 2.93021 0.499669 3.02559 0.499664 3.12505V9.12505C0.499669 9.2245 0.53918 9.31988 0.609505 9.39021C0.67983 9.46053 0.77521 9.50004 0.874664 9.50005H6.87466C6.97412 9.50004 7.0695 9.46053 7.13982 9.39021C7.21015 9.31988 7.24966 9.2245 7.24966 9.12505V7.25H9.12471C9.22417 7.25 9.31955 7.21048 9.38987 7.14016C9.4602 7.06983 9.49971 6.97445 9.49971 6.875V0.875C9.49971 0.775545 9.4602 0.680165 9.38987 0.60984C9.31955 0.539515 9.22417 0.500005 9.12471 0.5ZM8.74971 6.5H7.24966V3.12505C7.24966 3.02559 7.21015 2.93021 7.13982 2.85989C7.0695 2.78956 6.97412 2.75005 6.87466 2.75005H3.49971V1.25H8.74971V6.5Z" fill="currentColor"/>
</svg>