<svg width="16" height="16" viewBox="0 0 20 20" fill="none"
  xmlns="http://www.w3.org/2000/svg">
  <path d="M9.625 0C4.30977 0 0 4.30977 0 9.625C0 14.9402 4.30977 19.25 9.625 19.25C14.9402 19.25 19.25 14.9402 19.25 9.625C19.25 4.30977 14.9402 0 9.625 0ZM8.9375 4.98438C8.9375 4.88984 9.01484 4.8125 9.10938 4.8125H10.1406C10.2352 4.8125 10.3125 4.88984 10.3125 4.98438V10.8281C10.3125 10.9227 10.2352 11 10.1406 11H9.10938C9.01484 11 8.9375 10.9227 8.9375 10.8281V4.98438ZM9.625 14.4375C9.35514 14.432 9.09819 14.3209 8.90929 14.1281C8.72039 13.9353 8.61459 13.6762 8.61459 13.4062C8.61459 13.1363 8.72039 12.8772 8.90929 12.6844C9.09819 12.4916 9.35514 12.3805 9.625 12.375C9.89486 12.3805 10.1518 12.4916 10.3407 12.6844C10.5296 12.8772 10.6354 13.1363 10.6354 13.4062C10.6354 13.6762 10.5296 13.9353 10.3407 14.1281C10.1518 14.3209 9.89486 14.432 9.625 14.4375Z" fill="currentColor"/>
</svg>
