<svg width="12" height="12" viewBox="0 0 12 12" fill="none"
  xmlns="http://www.w3.org/2000/svg">
  <g clip-path="url(#clip0_24832_12282)">
    <path d="M11.04 9.28493H10.3195C10.2632 9.28493 10.2164 9.33181 10.2164 9.38806V10.2157H1.78287V1.78092H10.2177V2.60859C10.2177 2.66484 10.2646 2.71172 10.3208 2.71172H11.0414C11.0976 2.71172 11.1445 2.66618 11.1445 2.60859V1.26663C11.1445 1.03895 10.961 0.855469 10.7333 0.855469H1.26858C1.0409 0.855469 0.857422 1.03895 0.857422 1.26663V10.73C0.857422 10.9577 1.0409 11.1412 1.26858 11.1412H10.732C10.9597 11.1412 11.1431 10.9577 11.1431 10.73V9.38806C11.1431 9.33047 11.0963 9.28493 11.04 9.28493ZM11.2891 5.91395L9.38867 4.41395C9.31769 4.3577 9.21457 4.40859 9.21457 4.49833V5.51618H5.00921C4.95028 5.51618 4.90207 5.5644 4.90207 5.62333V6.37333C4.90207 6.43226 4.95028 6.48047 5.00921 6.48047H9.21457V7.49833C9.21457 7.58806 9.31903 7.63895 9.38867 7.5827L11.2891 6.0827C11.3019 6.07268 11.3123 6.05987 11.3194 6.04525C11.3265 6.03064 11.3302 6.01459 11.3302 5.99833C11.3302 5.98207 11.3265 5.96602 11.3194 5.9514C11.3123 5.93678 11.3019 5.92397 11.2891 5.91395V5.91395Z" fill="currentColor" />
  </g>
</svg>
