<svg width="13" height="12" viewBox="0 0 13 12" fill="none"
  xmlns="http://www.w3.org/2000/svg">
  <path d="M11.5225 0C11.7878 0.000246056 12.0018 0.214166 12.002 0.479492V2.0459C12.0017 2.11271 11.9471 2.16577 11.8818 2.16602H11.041C10.9755 2.16602 10.9212 2.11132 10.9209 2.0459V1.08008H1.08008V10.9209H10.9189V9.95508C10.9189 9.8895 10.9735 9.83503 11.0391 9.83496H11.8799C11.9455 9.835 12 9.88791 12 9.95508V11.5205C12 11.7861 11.7861 12 11.5205 12H0.479492C0.21404 11.9998 3.94195e-05 11.786 0 11.5205V0.479492C0.000168889 0.214119 0.21412 0.000171513 0.479492 0H11.5225ZM6.98438 4.15137C7.06559 4.08587 7.18741 4.14542 7.1875 4.25V5.4375H12.0938C12.1625 5.4375 12.2187 5.4938 12.2188 5.5625V6.4375C12.2188 6.50625 12.1625 6.5625 12.0938 6.5625H7.1875V7.75C7.1875 7.85469 7.06719 7.91426 6.98438 7.84863L4.76758 6.09863C4.75265 6.08695 4.74073 6.07173 4.73242 6.05469C4.72411 6.03763 4.71973 6.01897 4.71973 6C4.71974 5.98107 4.72413 5.96233 4.73242 5.94531C4.74073 5.92835 4.7527 5.91301 4.76758 5.90137L6.98438 4.15137Z" fill="currentColor" fill-opacity="0.85"/>
</svg>
