<svg width="14" height="14" viewBox="0 0 14 14" fill="none"
  xmlns="http://www.w3.org/2000/svg">
  <path d="M12.7502 0.7519H1.25024C0.973682 0.7519 0.750244 0.975337 0.750244 1.2519V12.7519C0.750244 13.0285 0.973682 13.2519 1.25024 13.2519H6.87524C6.94399 13.2519 7.00024 13.1957 7.00024 13.1269V12.2519C7.00024 12.1832 6.94399 12.1269 6.87524 12.1269H1.87524V1.8769H12.1252V6.8769C12.1252 6.94565 12.1815 7.0019 12.2502 7.0019H13.1252C13.194 7.0019 13.2502 6.94565 13.2502 6.8769V1.2519C13.2502 0.975337 13.0268 0.7519 12.7502 0.7519ZM9.20806 8.36753L10.0237 7.5519C10.0402 7.5353 10.0517 7.51439 10.057 7.49156C10.0622 7.46872 10.0609 7.44488 10.0533 7.42274C10.0456 7.4006 10.0319 7.38105 10.0137 7.36632C9.99547 7.35159 9.97349 7.34226 9.95025 7.3394L7.14712 7.01128C7.06743 7.0019 6.99868 7.06909 7.00806 7.15034L7.33618 9.95346C7.34868 10.0566 7.47524 10.1003 7.54868 10.0269L8.36743 9.20815L12.3706 13.2113C12.419 13.2597 12.4987 13.2597 12.5471 13.2113L13.2096 12.5488C13.2581 12.5003 13.2581 12.4207 13.2096 12.3722L9.20806 8.36753Z" fill="currentColor" fill-opacity="0.85"/>
</svg>
