<svg width="14" height="14" viewBox="0 0 14 14" fill="none" xmlns="http://www.w3.org/2000/svg">
<path d="M13.3762 3.63649C13.0517 3.96092 12.6312 4.17195 12.1772 4.23816C11.7232 4.30437 11.26 4.22223 10.8564 4.00395L4.00402 10.8565C4.19193 11.204 4.27949 11.597 4.25693 11.9914C4.23437 12.3858 4.10257 12.7662 3.87627 13.09C3.64996 13.4139 3.33806 13.6684 2.97542 13.8251C2.61278 13.9819 2.2137 14.0347 1.82277 13.9777C1.43184 13.9207 1.06447 13.7561 0.761715 13.5023C0.458956 13.2485 0.232741 12.9155 0.108349 12.5405C-0.0160423 12.1655 -0.0337089 11.7633 0.0573241 11.3789C0.148357 10.9944 0.344503 10.6429 0.62384 10.3635C0.948257 10.0391 1.36875 9.82805 1.82276 9.76184C2.27676 9.69563 2.74001 9.77777 3.14357 9.99605L9.99598 3.14348C9.80807 2.79596 9.72051 2.40303 9.74307 2.0086C9.76563 1.61417 9.89743 1.23379 10.1237 0.90996C10.35 0.586132 10.6619 0.331618 11.0246 0.174862C11.3872 0.0181063 11.7863 -0.0347145 12.1772 0.0223026C12.5682 0.0793198 12.9355 0.243928 13.2383 0.497732C13.541 0.751536 13.7673 1.08453 13.8917 1.45951C14.016 1.83449 14.0337 2.23667 13.9427 2.62112C13.8516 3.00556 13.6555 3.35711 13.3762 3.63649Z" fill="currentColor"/>
</svg>
