<svg width="48" height="48" viewBox="0 0 48 48" fill="none" xmlns="http://www.w3.org/2000/svg">
<g clip-path="url(#clip0_111_12764)">
<path d="M37.6128 21.6597C37.4323 21.0185 37.3363 20.3472 37.3286 19.6497C37.3133 17.6435 38.5229 15.7685 40.2125 15.191C41.0611 14.9022 42.1209 15.0147 42.9811 15.491C43.7222 15.8997 44.2099 16.5072 44.352 17.1935C44.567 18.2172 44.0602 19.451 43.0963 20.261C41.9674 21.2097 40.4429 21.5322 39.36 21.6335C38.784 21.6897 38.2003 21.6972 37.6128 21.656M27.4214 8.72223C27.9706 6.07473 29.7408 4.57848 31.2192 4.57848C31.2845 4.57848 31.3536 4.57848 31.4189 4.58598C32.832 4.71723 34.272 6.40848 34.0877 8.47098C33.9417 10.121 32.9856 11.8047 31.0809 13.766C30.3014 14.5722 29.4605 15.341 28.5773 16.061C27.3485 13.841 26.9069 11.1935 27.4176 8.71848M27.5597 30.611C26.2502 31.0572 24.9792 31.6347 23.7811 32.336C22.871 31.2672 21.8074 30.326 20.6208 29.5722C18.935 28.5035 16.9997 27.7872 14.9645 27.476C15.0144 26.546 14.9914 25.6122 14.8954 24.6785C17.6141 24.191 20.2829 23.3622 22.8096 22.2185C24.1805 25.121 25.7702 27.926 27.5673 30.611M22.0838 45.761C21.2467 45.8697 20.5632 45.476 20.1369 45.1272C19.3229 44.456 18.7891 43.4172 18.7469 42.4085C18.6547 40.226 20.1408 38.246 21.408 36.971C21.9686 36.4047 22.5792 35.8722 23.232 35.381C24.1843 36.9522 24.7833 38.726 24.9254 40.5372C25.1098 42.8547 24.0768 45.5097 22.0877 45.7647M11.0323 33.6897C10.3219 35.0735 9.54623 36.0185 8.65151 36.581C7.65695 37.2072 6.43583 37.316 5.61023 36.8547C4.38911 36.1685 4.17791 34.3535 4.75775 33.1535C5.57951 31.4435 7.53407 30.5547 8.62463 30.1797C9.83039 29.7635 11.136 29.5385 12.4569 29.516C12.1805 30.971 11.7043 32.381 11.0323 33.6897ZM10.6829 22.9385C7.95263 23.0697 6.01727 22.706 4.60031 21.7947C3.14495 20.8572 2.11199 18.821 2.89535 17.291C3.35999 16.3797 4.57727 15.6972 5.96351 15.6972C6.50111 15.6972 7.06559 15.7985 7.61855 16.0347C9.67295 16.901 10.8902 18.971 11.5507 20.5572C11.8541 21.2847 12.0998 22.0422 12.288 22.8185C11.7542 22.8747 11.2166 22.916 10.6829 22.9422M36.96 31.9272C38.4768 32.1672 39.5558 32.561 40.3507 33.161C41.2416 33.836 41.7331 34.8335 41.6064 35.7035C41.4989 36.4347 40.9766 36.911 40.5581 37.1772C39.6941 37.7285 38.496 37.916 37.5053 37.6497C35.5699 37.1285 34.0416 35.4822 32.6784 33.7835C32.2022 33.1872 31.7299 32.5797 31.2729 31.9647C33.1622 31.6497 35.0899 31.631 36.9638 31.9272M14.8646 11.7672C13.4899 11.9097 12.2342 11.6472 11.328 11.021C10.391 10.3722 9.85343 9.25848 10.0224 8.30973C10.2566 6.99348 11.7619 6.16473 13.1251 6.16473C13.2749 6.16473 13.4208 6.17598 13.5667 6.19473C15.1104 6.41223 16.6041 7.52973 17.6678 9.25473C17.9136 9.65598 18.1325 10.0722 18.3283 10.4997C17.2877 11.1935 16.0819 11.6397 14.8685 11.7635M46.7673 28.031C43.1654 27.7647 40.2624 26.201 38.6726 23.891C38.9798 23.8835 39.2832 23.8647 39.5865 23.8347C41.6064 23.6435 43.3344 22.9872 44.5824 21.9372C46.176 20.5985 46.9593 18.5622 46.583 16.7472C46.3104 15.4422 45.408 14.2797 44.1101 13.5597C42.6739 12.7647 40.9382 12.5922 39.4713 13.0947C36.8563 13.991 35.0477 16.691 35.0745 19.661C35.0784 20.1972 35.1245 20.7185 35.209 21.2247C33.2313 20.6547 31.4189 19.5672 30.071 18.1122C30.0057 18.041 29.9405 17.9697 29.879 17.8947C30.8928 17.081 31.8528 16.2072 32.7437 15.2885C34.176 13.811 36.1075 11.5197 36.361 8.66223C36.6029 5.92473 34.7289 2.66973 31.6493 2.38098C28.3277 2.06973 25.8509 5.18598 25.2134 8.27973C24.5722 11.3735 25.1712 14.6885 26.7801 17.4222C25.8662 18.0597 24.9139 18.6447 23.9347 19.181C23.2205 17.516 22.583 15.8172 22.0185 14.096C21.9264 13.8147 21.8342 13.5297 21.7459 13.2447C21.527 12.5547 21.3005 11.8572 21.0509 11.1635C21.6345 10.5935 22.1376 9.96348 22.5485 9.28098C24.096 6.71223 24.3187 3.41223 23.1283 0.667227C22.8825 0.104727 22.2182 -0.157773 21.6422 0.0784774C21.0662 0.318477 20.7974 0.967227 21.0394 1.52973C21.9533 3.64098 21.7843 6.17973 20.5939 8.15598C20.4365 8.41473 20.2637 8.66598 20.0717 8.90598C19.9296 8.63598 19.7837 8.36973 19.6224 8.10723C18.2093 5.80848 16.1241 4.30848 13.9046 3.99348C12.6221 3.80973 11.232 4.09848 10.0915 4.78098C8.84351 5.52723 8.03327 6.64098 7.80287 7.91598C7.48031 9.70473 8.37887 11.6735 10.0301 12.8172C11.3856 13.7547 13.1942 14.1597 15.1181 13.9572C16.5235 13.811 17.9174 13.3422 19.1577 12.6072C19.2998 13.031 19.4381 13.466 19.5802 13.9047C19.6723 14.1935 19.7645 14.4822 19.8605 14.771C20.4634 16.6085 21.1469 18.416 21.911 20.1897C19.5609 21.2547 17.0842 22.0347 14.5536 22.4922C14.3347 21.5397 14.0352 20.606 13.6627 19.7135C12.841 17.7447 11.2857 15.1572 8.52863 13.9947C5.95583 12.911 2.26943 13.5747 0.879354 16.2935C0.249593 17.5272 0.203513 18.9972 0.756474 20.4335C1.25183 21.716 2.20031 22.886 3.36383 23.636C5.34143 24.911 7.70303 25.1772 9.61151 25.1772C10.0378 25.1772 10.4371 25.1622 10.8096 25.1472C11.4317 25.1172 12.0499 25.0647 12.672 25.001C12.745 25.766 12.7642 26.5347 12.7296 27.2997H12.6797C11.0323 27.2997 9.39263 27.5697 7.87967 28.091C5.41823 28.9422 3.58271 30.4047 2.71487 32.2122C1.55519 34.631 2.35007 37.5747 4.49279 38.7747C5.18399 39.161 5.98271 39.3522 6.80447 39.3522C7.84895 39.3522 8.93183 39.0447 9.89183 38.4447C11.136 37.661 12.1766 36.431 13.0714 34.6835C13.8739 33.116 14.4307 31.4247 14.7341 29.6847C16.416 29.9547 18.0134 30.551 19.4035 31.436C20.3405 32.0322 21.1853 32.7597 21.9187 33.5885C21.1584 34.1585 20.4441 34.7772 19.7913 35.4372C18.2169 37.0235 16.3699 39.5397 16.4966 42.506C16.5658 44.1372 17.3875 45.7535 18.6931 46.826C19.6262 47.591 20.7206 47.9997 21.8227 47.9997C22.0109 47.9997 22.2029 47.9885 22.391 47.9622C25.7395 47.5347 27.4637 43.766 27.1949 40.3685C27.0221 38.1822 26.2886 36.041 25.1213 34.151C26.3193 33.4685 27.5865 32.921 28.8998 32.5197C29.5411 33.4122 30.2131 34.2935 30.8966 35.1447C32.4979 37.1435 34.3373 39.0897 36.9062 39.7797C37.4016 39.9147 37.9238 39.9785 38.4499 39.9785C39.6288 39.9785 40.8307 39.6485 41.8022 39.026C42.9465 38.2947 43.6761 37.2222 43.8528 36.0147C44.0985 34.346 43.2883 32.5797 41.7446 31.4097C40.6387 30.5697 39.2333 30.041 37.3248 29.7372C34.8633 29.3472 32.3174 29.441 29.8598 29.9772C27.9475 27.1835 26.2694 24.2585 24.841 21.221C25.9545 20.6247 27.0336 19.9647 28.0704 19.2447C28.1741 19.3647 28.2777 19.481 28.3853 19.5972C30.3206 21.6897 33.047 23.1522 35.9501 23.6772C37.6243 27.3297 41.5488 29.8647 46.5984 30.2397C46.6291 30.2397 46.656 30.2397 46.6867 30.2397C47.2742 30.2397 47.7696 29.7972 47.8157 29.216C47.8617 28.6047 47.3971 28.076 46.7712 28.0272" fill="#E8373D"/>
</g>
<defs>
<clipPath id="clip0_111_12764">
<rect width="48" height="48" fill="white"/>
</clipPath>
</defs>
</svg>
