<svg width="22" height="28" viewBox="0 0 22 28" fill="none" xmlns="http://www.w3.org/2000/svg">
<path d="M10.999 0C8.0827 0.00346028 5.28682 1.1635 3.22467 3.22565C1.16252 5.2878 0.00248371 8.08368 -0.000976562 11C-0.000976563 20.4121 9.99902 27.5215 10.4248 27.8193C10.5932 27.9369 10.7936 28 10.999 28C11.2044 28 11.4049 27.9369 11.5732 27.8193C11.999 27.5215 21.999 20.4121 21.999 11C21.9956 8.08368 20.8355 5.2878 18.7734 3.22565C16.7112 1.1635 13.9153 0.00345995 10.999 0ZM10.9998 7.00036C11.7909 7.00036 12.5642 7.23496 13.222 7.67448C13.8798 8.11401 14.3925 8.73872 14.6953 9.46963C14.998 10.2005 15.0772 11.0048 14.9229 11.7807C14.7686 12.5566 14.3876 13.2694 13.8282 13.8288C13.2688 14.3882 12.556 14.7692 11.7801 14.9235C11.0042 15.0778 10.1999 14.9986 9.46902 14.6959C8.73812 14.3931 8.1134 13.8804 7.67388 13.2226C7.23435 12.5648 6.99976 11.7915 6.99976 11.0004C6.99974 10.4751 7.10319 9.95492 7.30421 9.46961C7.50522 8.9843 7.79986 8.54334 8.1713 8.1719C8.54273 7.80046 8.9837 7.50583 9.469 7.30481C9.95431 7.1038 10.4745 7.00035 10.9998 7.00036Z" fill="#fff"/>
</svg>
