<svg width="52" height="58" viewBox="0 0 52 58" fill="none" xmlns="http://www.w3.org/2000/svg">
<g filter="url(#filter0_d_13361_22536)">
<path d="M41.1914 17.3897L41.1916 17.3901C42.0592 19.3989 42.5 21.5351 42.5 23.7293C42.5 26.8328 41.7596 29.8973 40.3189 32.8278C39.1699 35.1802 37.5773 37.452 35.5946 39.585C32.2234 43.2156 28.6969 45.4321 27.6651 46.0429C27.1462 46.3517 26.5695 46.5 25.996 46.5M41.1914 17.3897L25.996 45M41.1914 17.3897C40.355 15.4548 39.1492 13.7026 37.6416 12.2319C36.1324 10.7521 34.3533 9.5771 32.401 8.77133C30.3698 7.92623 28.2147 7.5 26 7.5C23.7847 7.5 21.6299 7.92647 19.5996 8.76702L19.5991 8.76723M41.1914 17.3897L19.5991 8.76723M25.996 46.5V45M25.996 46.5C25.9968 46.5 25.9977 46.5 25.9986 46.5L25.996 45M25.996 46.5C25.4092 46.5005 24.8334 46.3429 24.3287 46.0441M25.996 45C25.6783 45.0005 25.3663 44.9153 25.0927 44.7532M24.3287 46.0441L25.0927 44.7532M24.3287 46.0441C24.3285 46.0439 24.3283 46.0438 24.3281 46.0437L25.0927 44.7532M24.3287 46.0441C23.2994 45.4348 19.7703 43.2176 16.3968 39.5844L16.3963 39.5839C14.4147 37.4478 12.8217 35.1799 11.6723 32.8262L11.6722 32.8259C10.2407 29.8931 9.5 26.8253 9.5 23.7252C9.5 21.531 9.94077 19.3949 10.8084 17.386L10.809 17.3848C11.6464 15.4506 12.8523 13.6986 14.3591 12.2273L25.0927 44.7532M19.5991 8.76723C17.6353 9.5811 15.874 10.7475 14.3593 12.227L19.5991 8.76723Z" fill="white" stroke="white" stroke-width="3"/>
<path d="M26 19.518C24.7944 19.518 23.6613 19.9873 22.8065 20.8449C22.3864 21.2652 22.0533 21.7646 21.8263 22.3144C21.5993 22.8643 21.4829 23.4537 21.4839 24.0489C21.4839 25.2585 21.9556 26.3952 22.8065 27.2528C23.2253 27.6743 23.7231 28.0085 24.2712 28.2362C24.8192 28.4639 25.4068 28.5807 26 28.5797C27.2056 28.5797 28.3387 28.1064 29.1936 27.2528C30.0484 26.3952 30.5161 25.2585 30.5161 24.0489C30.5161 22.8393 30.0484 21.7025 29.1936 20.8449C28.3387 19.9873 27.2056 19.518 26 19.518ZM39.8145 17.9848C39.0554 16.2286 37.9609 14.6386 36.5927 13.3043C35.2201 11.958 33.602 10.8894 31.8266 10.157C29.9798 9.38836 28.0202 9 26 9C23.9798 9 22.0202 9.38836 20.1734 10.1529C18.3871 10.8932 16.7863 11.9531 15.4073 13.3003C14.04 14.6353 12.9456 16.2252 12.1855 17.9808C11.3992 19.8012 11 21.7349 11 23.7252C11 26.5813 11.6815 29.4252 13.0202 32.168C14.0968 34.3727 15.6008 36.5208 17.496 38.5638C20.7339 42.0509 24.129 44.1828 25.0927 44.7532C25.3663 44.9153 25.6783 45.0005 25.996 45C26.3105 45 26.621 44.9191 26.8992 44.7532C27.8629 44.1828 31.2581 42.0509 34.496 38.5638C36.3911 36.5249 37.8952 34.3727 38.9718 32.168C40.3186 29.4293 41 26.5894 41 23.7293C41 21.739 40.6008 19.8053 39.8145 17.9848ZM26 31.1688C22.0806 31.1688 18.9032 27.981 18.9032 24.0489C18.9032 20.1168 22.0806 16.929 26 16.929C29.9194 16.929 33.0968 20.1168 33.0968 24.0489C33.0968 27.981 29.9194 31.1688 26 31.1688Z" fill="#1890FF"/>
</g>
<defs>
<filter id="filter0_d_13361_22536" x="-4" y="-1" width="60" height="60" filterUnits="userSpaceOnUse" color-interpolation-filters="sRGB">
<feFlood flood-opacity="0" result="BackgroundImageFix"/>
<feColorMatrix in="SourceAlpha" type="matrix" values="0 0 0 0 0 0 0 0 0 0 0 0 0 0 0 0 0 0 127 0" result="hardAlpha"/>
<feOffset dy="2"/>
<feGaussianBlur stdDeviation="4"/>
<feColorMatrix type="matrix" values="0 0 0 0 0 0 0 0 0 0 0 0 0 0 0 0 0 0 0.15 0"/>
<feBlend mode="normal" in2="BackgroundImageFix" result="effect1_dropShadow_13361_22536"/>
<feBlend mode="normal" in="SourceGraphic" in2="effect1_dropShadow_13361_22536" result="shape"/>
</filter>
</defs>
</svg>
