<svg width="23" height="22" viewBox="0 0 23 22" fill="none" xmlns="http://www.w3.org/2000/svg">
    <path
        d="M21.624 3.62774C21.3454 3.34909 21.0146 3.12805 20.6506 2.97725C20.2866 2.82644 19.8964 2.74882 19.5024 2.74882C19.1084 2.74882 18.7182 2.82644 18.3542 2.97725C17.9902 3.12805 17.6594 3.34909 17.3808 3.62774C17.192 3.81645 17.0293 4.0296 16.8971 4.26149L14.2515 3.53962C14.2596 2.94276 14.0896 2.35704 13.763 1.85738C13.4365 1.35771 12.9683 0.966808 12.4184 0.734679C11.8685 0.502551 11.2618 0.439747 10.676 0.554301C10.0902 0.668855 9.55186 0.955559 9.12989 1.37774C8.67934 1.82936 8.38416 2.41263 8.28708 3.04314C8.19 3.67365 8.29606 4.31869 8.58989 4.88493L5.40802 7.74899C4.83072 7.36743 4.13942 7.19683 3.45089 7.26601C2.76236 7.33518 2.11881 7.6399 1.62895 8.12868C1.08124 8.67224 0.764037 9.40596 0.743275 10.1773C0.722513 10.9487 0.999786 11.6984 1.51747 12.2707C2.03515 12.8429 2.75343 13.1937 3.52303 13.25C4.29263 13.3064 5.05435 13.0641 5.64989 12.5734L12.2124 17.3884C12.0024 17.9143 11.9455 18.4889 12.0483 19.0458C12.1512 19.6027 12.4096 20.1191 12.7936 20.5353C13.1776 20.9515 13.6716 21.2505 14.2184 21.3978C14.7652 21.545 15.3425 21.5345 15.8836 21.3674C16.4247 21.2003 16.9075 20.8835 17.2761 20.4535C17.6446 20.0236 17.884 19.4981 17.9665 18.9379C18.0489 18.3776 17.9712 17.8054 17.7421 17.2875C17.513 16.7696 17.1421 16.3271 16.6721 16.0112L19.2399 8.73711C19.3261 8.74462 19.4124 8.74837 19.4986 8.74837C20.0919 8.74828 20.6717 8.57231 21.165 8.24272C21.6582 7.91313 22.0427 7.44471 22.2697 6.89666C22.4968 6.34862 22.5563 5.74555 22.4407 5.16371C22.3251 4.58186 22.0395 4.04735 21.6202 3.62774H21.624ZM10.1865 2.43805C10.3963 2.22844 10.6636 2.08575 10.9545 2.028C11.2454 1.97026 11.5469 2.00006 11.8209 2.11364C12.0949 2.22722 12.3291 2.41948 12.4938 2.66612C12.6586 2.91276 12.7465 3.2027 12.7465 3.4993C12.7465 3.7959 12.6586 4.08585 12.4938 4.33248C12.3291 4.57912 12.0949 4.77138 11.8209 4.88496C11.5469 4.99854 11.2454 5.02835 10.9545 4.9706C10.6636 4.91286 10.3963 4.77016 10.1865 4.56055C10.0472 4.421 9.93689 4.25537 9.86172 4.07314C9.78656 3.89091 9.74805 3.69565 9.7484 3.49853C9.74875 3.3014 9.78795 3.10628 9.86375 2.92432C9.93956 2.74235 10.0505 2.57712 10.1902 2.43805H10.1865ZM2.68645 11.3115C2.54699 11.1722 2.43635 11.0067 2.36087 10.8247C2.28538 10.6426 2.24652 10.4474 2.24652 10.2502C2.24652 10.0531 2.28538 9.85793 2.36087 9.67583C2.43635 9.49373 2.54699 9.3283 2.68645 9.18899C2.8963 8.97938 3.16358 8.83668 3.4545 8.77894C3.74543 8.7212 4.04694 8.751 4.32094 8.86458C4.59493 8.97816 4.8291 9.17042 4.99384 9.41706C5.15859 9.6637 5.24652 9.95364 5.24652 10.2502C5.24652 10.5468 5.15859 10.8368 4.99384 11.0834C4.8291 11.3301 4.59493 11.5223 4.32094 11.6359C4.04694 11.7495 3.74543 11.7793 3.4545 11.7215C3.16358 11.6638 2.8963 11.5211 2.68645 11.3115ZM16.0599 19.5615C15.7786 19.8428 15.397 20.0009 14.9991 20.0009C14.6012 20.0009 14.2197 19.8428 13.9383 19.5615C13.657 19.2802 13.4989 18.8986 13.4989 18.5007C13.4989 18.1028 13.657 17.7213 13.9383 17.4399C14.0776 17.3006 14.243 17.1901 14.425 17.1147C14.607 17.0393 14.8021 17.0005 14.9991 17.0005C15.1961 17.0005 15.3912 17.0393 15.5732 17.1147C15.7552 17.1901 15.9206 17.3006 16.0599 17.4399C16.1992 17.5792 16.3097 17.7446 16.3851 17.9266C16.4605 18.1086 16.4993 18.3037 16.4993 18.5007C16.4993 18.6977 16.4605 18.8928 16.3851 19.0748C16.3097 19.2568 16.1992 19.4222 16.0599 19.5615ZM15.2583 15.5134C14.4806 15.4456 13.7071 15.6837 13.1021 16.1771L6.53958 11.3621C6.69861 10.9609 6.7697 10.5303 6.74803 10.0993C6.72635 9.66824 6.61243 9.24689 6.41395 8.86368L9.59677 5.99962C9.93918 6.22656 10.3246 6.38077 10.729 6.45268C11.1335 6.52458 11.5484 6.51266 11.948 6.41765C12.3477 6.32263 12.7236 6.14655 13.0524 5.90032C13.3812 5.65409 13.6559 5.34294 13.8596 4.98618L16.5015 5.70899C16.4943 6.20769 16.6116 6.70031 16.8427 7.14228C17.0739 7.58425 17.4115 7.96161 17.8252 8.24024L15.2583 15.5134ZM20.5608 6.80962C20.4237 6.95784 20.258 7.07684 20.0738 7.15949C19.8895 7.24214 19.6905 7.28674 19.4886 7.29061C19.2867 7.29449 19.0861 7.25755 18.8988 7.18202C18.7115 7.1065 18.5414 6.99393 18.3987 6.85108C18.256 6.70823 18.1436 6.53803 18.0682 6.35068C17.9928 6.16333 17.9561 5.9627 17.9601 5.7608C17.9642 5.55891 18.009 5.35991 18.0918 5.17573C18.1746 4.99156 18.2937 4.826 18.4421 4.68899C18.7234 4.40765 19.105 4.2496 19.5029 4.2496C19.9007 4.2496 20.2823 4.40765 20.5636 4.68899C20.845 4.97033 21.003 5.3519 21.003 5.74977C21.003 6.14764 20.845 6.52922 20.5636 6.81055L20.5608 6.80962Z"
        fill="currentColor" />
</svg>