<svg width="24" height="20" viewBox="0 0 24 20" fill="none" xmlns="http://www.w3.org/2000/svg">
    <path
        d="M22.3734 1.12746C22.0949 0.848809 21.7641 0.627769 21.4001 0.476962C21.0361 0.326155 20.6459 0.248535 20.2519 0.248535C19.8579 0.248535 19.4677 0.326155 19.1037 0.476962C18.7396 0.627769 18.4089 0.848809 18.1303 1.12746C17.8517 1.40604 17.6306 1.73679 17.4798 2.10081C17.329 2.46483 17.2514 2.855 17.2514 3.24902C17.2514 3.64304 17.329 4.03321 17.4798 4.39723C17.6306 4.76125 17.8517 5.092 18.1303 5.37058C18.1575 5.39777 18.1866 5.42402 18.2147 5.45027L15.7181 10.0871C14.957 9.90153 14.1535 10.0192 13.4775 10.4153L11.5856 8.5234C11.9578 7.89431 12.0876 7.15098 11.9504 6.43302C11.8133 5.71505 11.4188 5.07184 10.841 4.62419C10.2631 4.17654 9.54175 3.95526 8.81229 4.00189C8.08284 4.04853 7.3955 4.35987 6.87938 4.87746C6.60073 5.15604 6.37969 5.48679 6.22888 5.85081C6.07807 6.21483 6.00045 6.605 6.00045 6.99902C6.00045 7.39304 6.07807 7.78321 6.22888 8.14723C6.37969 8.51125 6.60073 8.842 6.87938 9.12058C6.90656 9.14777 6.93469 9.17402 6.96281 9.20027L4.46625 13.8381C3.96512 13.7147 3.44065 13.7228 2.94353 13.8614C2.44641 14 1.99345 14.2645 1.62844 14.6293C1.20895 15.0489 0.923296 15.5835 0.807595 16.1654C0.691895 16.7473 0.751345 17.3505 0.978428 17.8986C1.20551 18.4468 1.59003 18.9153 2.08336 19.2449C2.57669 19.5745 3.15669 19.7504 3.75 19.7504C4.34332 19.7504 4.92331 19.5745 5.41664 19.2449C5.90997 18.9153 6.29449 18.4468 6.52157 17.8986C6.74866 17.3505 6.80811 16.7473 6.69241 16.1654C6.57671 15.5835 6.29105 15.0489 5.87156 14.6293C5.84438 14.6021 5.81531 14.5759 5.78719 14.5496L8.28375 9.91277C8.51849 9.97026 8.75926 9.99953 9.00094 9.99996C9.53655 10.0006 10.0626 9.85786 10.5244 9.58652L12.4163 11.4784C12.1314 11.9618 11.9879 12.5153 12.0019 13.0762C12.0159 13.6371 12.1869 14.1828 12.4955 14.6514C12.8041 15.1199 13.2378 15.4926 13.7476 15.727C14.2573 15.9614 14.8226 16.0481 15.3792 15.9774C15.9357 15.9067 16.4613 15.6813 16.8962 15.3268C17.3311 14.9724 17.6579 14.5031 17.8395 13.9722C18.0211 13.4413 18.0501 12.8702 17.9234 12.3236C17.7966 11.7771 17.5192 11.277 17.1225 10.8803C17.0953 10.8531 17.0672 10.8268 17.0391 10.8006L19.5356 6.16371C19.7698 6.2208 20.0099 6.24975 20.2509 6.24996C20.8442 6.24987 21.424 6.07391 21.9173 5.74431C22.4105 5.41472 22.795 4.9463 23.022 4.39825C23.2491 3.85021 23.3086 3.24715 23.193 2.6653C23.0774 2.08345 22.7918 1.54894 22.3725 1.12933L22.3734 1.12746ZM4.81031 17.8121C4.52885 18.0935 4.14716 18.2515 3.7492 18.2514C3.35124 18.2513 2.96962 18.0931 2.68828 17.8117C2.40695 17.5302 2.24894 17.1485 2.24903 16.7506C2.24912 16.3526 2.40729 15.971 2.68875 15.6896C2.82812 15.5503 2.99356 15.4399 3.17562 15.3645C3.35769 15.2891 3.55282 15.2503 3.74986 15.2504C3.94691 15.2504 4.14202 15.2893 4.32406 15.3647C4.50609 15.4402 4.67148 15.5507 4.81078 15.6901C4.95009 15.8295 5.06058 15.9949 5.13594 16.177C5.21131 16.3591 5.25008 16.5542 5.25004 16.7512C5.24999 16.9483 5.21114 17.1434 5.13569 17.3254C5.06024 17.5075 4.94968 17.6728 4.81031 17.8121ZM7.93969 8.06215C7.80036 7.92285 7.68985 7.75748 7.61444 7.57547C7.53904 7.39346 7.50023 7.19838 7.50023 7.00136C7.50023 6.80435 7.53904 6.60927 7.61444 6.42726C7.68985 6.24525 7.80036 6.07987 7.93969 5.94058C8.14948 5.73084 8.41676 5.58801 8.70772 5.53016C8.99868 5.47231 9.30026 5.50204 9.57433 5.61558C9.8484 5.72912 10.0826 5.92138 10.2475 6.16804C10.4123 6.41471 10.5002 6.70471 10.5002 7.00136C10.5002 7.29802 10.4123 7.58802 10.2475 7.83468C10.0826 8.08135 9.8484 8.27361 9.57433 8.38715C9.30026 8.50069 8.99868 8.53042 8.70772 8.47257C8.41676 8.41472 8.14948 8.27189 7.93969 8.06215ZM16.0622 14.0621C15.7809 14.3435 15.3993 14.5015 15.0014 14.5015C14.6035 14.5015 14.222 14.3435 13.9406 14.0621C13.6593 13.7808 13.5012 13.3992 13.5012 13.0014C13.5012 12.6035 13.6593 12.2219 13.9406 11.9406C14.222 11.6592 14.6035 11.5012 15.0014 11.5012C15.3993 11.5012 15.7809 11.6592 16.0622 11.9406C16.3435 12.2219 16.5016 12.6035 16.5016 13.0014C16.5016 13.3992 16.3435 13.7808 16.0622 14.0621ZM21.3122 4.31215C21.0305 4.59336 20.6486 4.75114 20.2506 4.75079C19.8525 4.75044 19.4709 4.59198 19.1897 4.31027C18.9085 4.02856 18.7507 3.64668 18.751 3.24863C18.7514 2.85059 18.9099 2.46898 19.1916 2.18777C19.3309 2.04847 19.4964 1.93798 19.6784 1.86261C19.8605 1.78724 20.0556 1.74847 20.2527 1.74852C20.4497 1.74856 20.6448 1.78742 20.8269 1.86286C21.0089 1.93831 21.1743 2.04887 21.3136 2.18824C21.4529 2.3276 21.5634 2.49304 21.6388 2.67511C21.7141 2.85717 21.7529 3.0523 21.7528 3.24935C21.7528 3.4464 21.7139 3.64151 21.6385 3.82354C21.5631 4.00558 21.4525 4.17097 21.3131 4.31027L21.3122 4.31215Z"
        fill="currentColor" />
</svg>