<svg width="14" height="14" viewBox="0 0 14 14" fill="none"
  xmlns="http://www.w3.org/2000/svg">
  <path d="M7 0C10.8656 0 14 3.13438 14 7C14 10.8656 10.8656 14 7 14C3.13438 14 0 10.8656 0 7C0 3.13438 3.13438 0 7 0ZM7.00586 3C4.79398 2.99699 3.00009 4.8435 3 7.12305C3 8.41375 3.5748 9.56552 4.47559 10.3213C4.51047 10.3501 4.56179 10.3444 4.58984 10.3086L4.98438 9.78711C5.01101 9.75207 5.00455 9.70161 4.97168 9.67285C4.89078 9.60487 4.8132 9.53134 4.73828 9.4541C4.44598 9.15376 4.21238 8.79818 4.05176 8.40625C3.88376 8.00104 3.7998 7.56846 3.7998 7.12305C3.79983 6.67781 3.88389 6.24593 4.05078 5.83984C4.21178 5.44701 4.4433 5.09415 4.7373 4.79102C5.03123 4.488 5.37304 4.24996 5.75391 4.08398C6.14891 3.9118 6.568 3.8252 7 3.8252C7.432 3.8252 7.85112 3.9118 8.24512 4.08398C8.62598 4.24996 8.9678 4.488 9.26172 4.79102C9.55572 5.09415 9.78724 5.44701 9.94824 5.83984C10.1151 6.24593 10.1992 6.67781 10.1992 7.12305C10.1992 7.56846 10.1152 8.00099 9.94824 8.40723C9.78762 8.79916 9.55402 9.15473 9.26172 9.45508C9.16872 9.55097 9.07075 9.64115 8.96875 9.72363L8.56152 9.18652C8.55233 9.17431 8.54045 9.16451 8.52637 9.15918C8.51233 9.15387 8.49706 9.1531 8.48242 9.15625C8.46776 9.15947 8.45414 9.167 8.44336 9.17773C8.43256 9.18855 8.42447 9.20269 8.4209 9.21777L8.02539 10.8896C8.01342 10.9411 8.05078 10.9919 8.10156 10.9922L9.77246 11C9.83913 10.9996 9.87674 10.9207 9.83496 10.8672L9.46191 10.373C10.3979 9.61831 11 8.4428 11 7.12305C10.9999 4.84551 9.21481 3.00309 7.00586 3Z" fill="currentColor"/>
</svg>
