<svg width="48" height="42" viewBox="0 0 48 42" fill="none"
  xmlns="http://www.w3.org/2000/svg">
  <path d="M47.0246 38.8125L25.0871 0.84375C24.7601 0.279492 24.1959 0 23.6263 0C23.0568 0 22.4873 0.279492 22.1656 0.84375L0.228094 38.8125C-0.420539 39.941 0.39157 41.3438 1.68884 41.3438H45.5638C46.8611 41.3438 47.6732 39.941 47.0246 38.8125ZM21.9388 15.6094C21.9388 15.3773 22.1287 15.1875 22.3607 15.1875H24.892C25.124 15.1875 25.3138 15.3773 25.3138 15.6094V25.3125C25.3138 25.5445 25.124 25.7344 24.892 25.7344H22.3607C22.1287 25.7344 21.9388 25.5445 21.9388 25.3125V15.6094ZM23.6263 34.1719C22.9639 34.1584 22.3333 33.8857 21.8696 33.4125C21.4059 32.9393 21.1462 32.3031 21.1462 31.6406C21.1462 30.9781 21.4059 30.342 21.8696 29.8688C22.3333 29.3955 22.9639 29.1229 23.6263 29.1094C24.2887 29.1229 24.9194 29.3955 25.3831 29.8688C25.8467 30.342 26.1064 30.9781 26.1064 31.6406C26.1064 32.3031 25.8467 32.9393 25.3831 33.4125C24.9194 33.8857 24.2887 34.1584 23.6263 34.1719V34.1719Z" fill="currentColor"/>
</svg>
